<svg width="536" height="526" viewBox="0 0 536 526" fill="none" xmlns="http://www.w3.org/2000/svg">
<path d="M451.618 354.857C452.034 352.107 453.08 351.185 455.811 350.285L464.359 348.862C467.957 349.03 469.203 350.495 470.806 354.215L474.655 361.146C476.901 364.453 478.667 365.601 482.946 366.105C487.863 366.449 489.708 365.254 492.417 362.239L496.024 357.588C498.947 354.447 500.538 354.408 503.314 356.639L509.846 361.362C512.036 362.991 512.138 364.747 510.593 369.161L508.911 377.277C508.566 387.015 511.617 390.477 521.215 392.397L525.991 392.394C529.823 391.995 531.053 393.237 531.852 397.669L533.355 404.286C533.724 407.689 533.088 409.178 530.081 410.906L524.884 414.061C515.814 422.359 514.62 427.008 520.258 435.257L524.862 441.005C527.176 443.466 526.946 445.059 525.107 448.096L520.661 454.559C518.045 458.742 515.038 457.822 508.763 454.251C498.346 453.448 494.395 456.38 490.821 467.891L490.062 473.564C490.038 476.947 489.175 478.056 486.371 478.845L478.326 480.977C475.72 481.416 474.723 480.387 473.469 477.12L468.701 468.141C462.385 463.547 458.586 463.729 451.525 467.127L446.745 471.62C443.951 474.333 442.361 474.805 439.455 472.57L433.425 468.555C430.749 466.746 427.762 464.59 431.538 458.679C433.132 455.684 435.99 453.094 436.152 450.955C436.533 445.956 434.745 440.261 430.13 437.959C428.709 437.25 424.933 437.567 423.093 437.017L414.432 436.501C412.991 436.462 412.34 435.471 411.503 431.618L410.001 425.001C409.344 421.386 409.872 420.444 411.346 419.406L415.286 416.725C425.153 410.167 429.676 403.556 419.414 390.329C415.872 386.913 415.577 384.656 418.248 381.191L422.779 374.097C424.19 372.053 425.756 372.184 428.896 372.991C444.591 377.511 450.086 374.424 451.618 354.857Z" fill="#939393"/>
<path d="M395.684 411.537L400.456 416.025L396.094 421.857L389.226 419.655L385.285 422.336L384.691 431.239L377.401 432.189L373.468 425.889L370.034 424.788L363.997 429.755L358.385 427.079L359.734 416.994L356.553 414.002L349.515 413.061L348.768 405.261L354.467 402.816L355.812 397.221L351.88 390.92L354.482 384.852L361.351 387.054L366.633 383.27L367.058 375.627L373.762 374.599L377.024 381.451L383.475 382.314L388.339 377.19L394.2 382.465L391.597 388.533L394.61 392.786L398.631 393.966L402.736 394.515L402.898 402.236L396.611 404.603L395.684 411.537Z" fill="#939393"/>
<path d="M404.048 429.337L392.905 427.847C384.785 442.823 379.583 442.459 369.608 432.43L360.386 438.896C364.393 452.677 364.146 458.868 346.879 459.546L344.691 471.444C357.37 478.194 360.039 483.254 348.44 496.968L354.968 506.182C369.925 500.051 373.459 503.868 373.39 520.195L384.95 523.025C391.395 507.914 396.535 506.101 409.003 517.259L416.967 511.267C413.282 494.723 417.161 490.599 431.23 489.435L432.747 478.089C421.262 471.578 418.882 465.706 425.189 456.546C426.194 455.088 427.419 453.546 428.862 451.905L422.47 443.35C411.109 446.946 403.903 450.78 404.048 429.337Z" fill="#939393"/>
<path d="M451.618 354.857C452.034 352.107 453.08 351.185 455.811 350.285L464.359 348.862C467.957 349.03 469.203 350.495 470.806 354.215L474.655 361.146C476.901 364.453 478.667 365.601 482.946 366.105C487.863 366.449 489.708 365.254 492.417 362.239L496.024 357.588C498.947 354.447 500.538 354.408 503.314 356.639L509.846 361.362C512.036 362.991 512.138 364.747 510.593 369.161L508.911 377.277C508.566 387.015 511.617 390.477 521.215 392.397L525.991 392.394C529.823 391.995 531.053 393.237 531.852 397.669L533.355 404.286C533.724 407.689 533.088 409.178 530.081 410.906L524.884 414.061C515.814 422.359 514.62 427.008 520.258 435.257L524.862 441.005C527.176 443.466 526.946 445.059 525.107 448.096L520.661 454.559C518.045 458.742 515.038 457.822 508.763 454.251C498.346 453.448 494.395 456.38 490.821 467.891L490.062 473.564C490.038 476.947 489.175 478.056 486.371 478.845L478.326 480.977C475.72 481.416 474.723 480.387 473.469 477.12L468.701 468.141C462.385 463.547 458.586 463.729 451.525 467.127L446.745 471.62C443.951 474.333 442.361 474.805 439.455 472.57L433.425 468.555C430.749 466.746 427.762 464.59 431.538 458.679C433.132 455.684 435.99 453.094 436.152 450.955C436.533 445.956 434.745 440.261 430.13 437.959C428.709 437.25 424.933 437.567 423.093 437.017L414.432 436.501C412.991 436.462 412.34 435.471 411.503 431.618L410.001 425.001C409.344 421.386 409.872 420.444 411.346 419.406L415.286 416.725C425.153 410.167 429.676 403.556 419.414 390.329C415.872 386.913 415.577 384.656 418.248 381.191L422.779 374.097C424.19 372.053 425.756 372.184 428.896 372.991C444.591 377.511 450.086 374.424 451.618 354.857Z" stroke="white" stroke-width="4"/>
<path d="M395.684 411.537L400.456 416.025L396.094 421.857L389.226 419.655L385.285 422.336L384.691 431.239L377.401 432.189L373.468 425.889L370.034 424.788L363.997 429.755L358.385 427.079L359.734 416.994L356.553 414.002L349.515 413.061L348.768 405.261L354.467 402.816L355.812 397.221L351.88 390.92L354.482 384.852L361.351 387.054L366.633 383.27L367.058 375.627L373.762 374.599L377.024 381.451L383.475 382.314L388.339 377.19L394.2 382.465L391.597 388.533L394.61 392.786L398.631 393.966L402.736 394.515L402.898 402.236L396.611 404.603L395.684 411.537Z" stroke="white" stroke-width="4"/>
<path d="M404.048 429.337L392.905 427.847C384.785 442.823 379.583 442.459 369.608 432.43L360.386 438.896C364.393 452.677 364.146 458.868 346.879 459.546L344.691 471.444C357.37 478.194 360.039 483.254 348.44 496.968L354.968 506.182C369.925 500.051 373.459 503.868 373.39 520.195L384.95 523.025C391.395 507.914 396.535 506.101 409.003 517.259L416.967 511.267C413.282 494.723 417.161 490.599 431.23 489.435L432.747 478.089C421.262 471.578 418.882 465.706 425.189 456.546C426.194 455.088 427.419 453.546 428.862 451.905L422.47 443.35C411.109 446.946 403.903 450.78 404.048 429.337Z" stroke="white" stroke-width="4"/>
<path d="M315.771 377.23L295.649 351.002C294.569 349.369 294.277 348.365 295.145 346.171L298.991 343.817C300.063 342.668 300.219 341.89 298.589 339.952L167.139 158.31C163.699 153.676 161.342 155.301 157.02 159.364L136.999 134.103C136.555 132.295 136.62 130.677 136.493 129.272M315.771 377.23C319.403 381.796 322.645 381.64 330.95 375.648L500.589 266.156C510.486 259.11 510.272 254.64 504.647 246.199L326.277 6.93731C320.711 0.0518082 316.693 -0.307973 307.76 5.93703L142.471 117.905C137.565 121.113 136.008 123.889 136.493 129.272M315.771 377.23C317.604 381.82 316.903 384.679 313.031 390.212L244.984 493.022L231.518 511.03C225.014 513.794 221.609 513.606 216.037 509.713L7.43985 215.976C0.465126 207.115 -0.532108 202.543 5.32507 195.685L128.096 127.217C128.949 126.754 133.371 125.489 136.493 129.272M325.294 350.842L167.958 136.736C163.632 131.053 164.19 129.15 167.963 126.969C170.468 124.339 172.457 126.015 176.763 132.888L330.359 340.548C332.621 344.156 334.709 344.245 339.667 341.531L343.513 339.177C346.609 337.312 345.814 335.411 342.708 331.446L188.508 117.99C186.365 115.202 187.354 113.656 190.838 110.91L211.892 96.9955C215.959 93.9162 216.745 93.7966 218.975 96.2573L221.301 98.945C223.384 101.063 222.978 102.382 220.893 104.848L213.301 110.523C210.258 112.76 209.353 113.926 209.757 115.776L360.927 319.78C364.663 324.799 367.139 325.227 372.359 321.519L376.105 318.198C377.798 316.697 377.624 315.421 375.501 312.401L229.693 110.768C227.484 107.801 226.805 106.406 228.077 105.076C229.853 103.925 230.786 104.081 232.326 106.586L238.393 115.721C241.499 120.063 244.339 123.494 248.205 121.536L252.962 118.11C256.124 115.778 255.293 113.304 250.842 107.587L238.81 90.2831C236.532 86.5241 235.579 84.5018 236.892 81.6926M260.568 83.1318C257.054 80.1031 252.144 70.8718 249.01 74.4218C246.37 77.6551 245.616 77.6459 248.023 80.5325L252.674 85.9079C255.13 88.8736 254.492 90.767 252.367 92.7769C248.194 95.1162 248.142 96.491 251.049 99.7514L254.588 104.266C257.238 108.298 258.821 108.501 261.872 105.46C263.102 103.796 264.257 103.778 267.234 107.832L272.999 114.068C275.887 117.164 277.185 115.461 279.07 113.435C282.072 110.805 282.648 111.999 285.343 114.735C286.903 117.501 285.406 119.578 278.154 124.274C272.649 128.592 271.805 131.264 276.327 136.185C279.228 140.111 282.485 140.487 288.57 135.886C294.98 131.024 297.673 131.264 300.914 136.553L306.88 144.721C309.568 148.507 307.886 150.262 304.65 152.768L297.969 157.371C295.339 159.732 294.268 160.916 297.763 165.206L346.602 231.416C350.38 236.77 352.686 237.085 357.023 233.26C362.463 228.249 365.448 228.382 370.581 235.754L414.164 290.791C416.56 294.163 415.669 296.17 411.023 299.909L405.354 304.406C401.761 307.03 399.576 307.279 394.832 301.596L354.184 245.276M327.837 120.073C313.933 128.403 308.906 133.967 321.852 150.975L360.074 203.64C369.225 217.46 374.14 218.857 382.633 213.987L426.763 185.946C441.012 177.072 440.727 171.098 430.115 159.225L390.6 106.694M220.593 504.355C224.616 507.83 226.886 507.397 230.712 503.3L310.504 385.592C313.127 381.483 313.399 379.309 311.52 375.719L132.949 134.525C131.206 131.826 129.774 131.723 126.676 133.225L11.6987 197.951C6.51292 200.771 5.83798 203.179 8.75887 209.001L220.593 504.355Z" stroke="white" stroke-width="3"/>
</svg>
