<svg width="556" height="556" viewBox="0 0 556 556" fill="none" xmlns="http://www.w3.org/2000/svg">
<path d="M467.673 370.334C468.089 367.584 469.135 366.662 471.866 365.762L480.413 364.339C484.012 364.507 485.258 365.972 486.861 369.692L490.709 376.623C492.956 379.93 494.722 381.078 499 381.582C503.918 381.926 505.763 380.731 508.472 377.716L512.078 373.065C515.002 369.924 516.593 369.885 519.369 372.116L525.9 376.839C528.091 378.468 528.193 380.224 526.648 384.638L524.966 392.754C524.621 402.492 527.672 405.954 537.27 407.874L542.046 407.871C545.878 407.472 547.108 408.714 547.907 413.146L549.409 419.763C549.779 423.166 549.142 424.655 546.136 426.383L540.939 429.538C531.869 437.836 530.675 442.485 536.313 450.734L540.916 456.483C543.231 458.943 543.001 460.536 541.162 463.573L536.716 470.036C534.1 474.219 531.093 473.299 524.818 469.728C514.401 468.925 510.449 471.857 506.876 483.368L506.117 489.041C506.092 492.424 505.23 493.533 502.426 494.322L494.381 496.454C491.774 496.893 490.777 495.864 489.524 492.597L484.755 483.618C478.44 479.024 474.641 479.206 467.58 482.604L462.8 487.097C460.005 489.81 458.415 490.282 455.51 488.047L449.48 484.032C446.804 482.223 443.817 480.067 447.592 474.156C449.187 471.161 452.044 468.571 452.207 466.432C452.587 461.433 450.799 455.738 446.185 453.436C444.764 452.727 440.987 453.044 439.148 452.495L430.487 451.978C429.046 451.939 428.394 450.948 427.558 447.095L426.055 440.478C425.398 436.863 425.927 435.921 427.401 434.883L431.341 432.202C441.208 425.644 445.731 419.033 435.468 405.806C431.926 402.39 431.632 400.133 434.303 396.668L438.833 389.575C440.245 387.53 441.811 387.661 444.951 388.468C460.646 392.988 466.141 389.901 467.673 370.334Z" fill="#939393"/>
<path d="M411.739 427.014L416.511 431.502L412.149 437.334L405.28 435.132L401.34 437.813L400.746 446.716L393.456 447.666L389.523 441.366L386.088 440.265L380.051 445.232L374.44 442.556L375.789 432.471L372.607 429.479L365.57 428.538L364.822 420.738L370.522 418.293L371.867 412.698L367.934 406.397L370.537 400.329L377.406 402.531L382.687 398.747L383.113 391.104L389.817 390.076L393.079 396.928L399.53 397.791L404.394 392.667L410.255 397.943L407.652 404.011L410.665 408.263L414.686 409.443L418.791 409.992L418.952 417.713L412.666 420.08L411.739 427.014Z" fill="#939393"/>
<path d="M420.103 444.814L408.96 443.324C400.84 458.3 395.638 457.936 385.663 447.907L376.441 454.373C380.447 468.154 380.2 474.345 362.934 475.023L360.746 486.921C373.425 493.672 376.093 498.731 364.495 512.445L371.023 521.659C385.98 515.528 389.514 519.345 389.445 535.672L401.005 538.502C407.45 523.391 412.59 521.578 425.057 532.736L433.022 526.744C429.337 510.2 433.216 506.076 447.284 504.912L448.802 493.566C437.317 487.055 434.937 481.183 441.244 472.023C442.249 470.565 443.473 469.023 444.917 467.382L438.525 458.827C427.163 462.423 419.958 466.257 420.103 444.814Z" fill="#939393"/>
<path d="M467.673 370.334C468.089 367.584 469.135 366.662 471.866 365.762L480.413 364.339C484.012 364.507 485.258 365.972 486.861 369.692L490.709 376.623C492.956 379.93 494.722 381.078 499 381.582C503.918 381.926 505.763 380.731 508.472 377.716L512.078 373.065C515.002 369.924 516.593 369.885 519.369 372.116L525.9 376.839C528.091 378.468 528.193 380.224 526.648 384.638L524.966 392.754C524.621 402.492 527.672 405.954 537.27 407.874L542.046 407.871C545.878 407.472 547.108 408.714 547.907 413.146L549.409 419.763C549.779 423.166 549.142 424.655 546.136 426.383L540.939 429.538C531.869 437.836 530.675 442.485 536.313 450.734L540.916 456.483C543.231 458.943 543.001 460.536 541.162 463.573L536.716 470.036C534.1 474.219 531.093 473.299 524.818 469.728C514.401 468.925 510.449 471.857 506.876 483.368L506.117 489.041C506.092 492.424 505.23 493.533 502.426 494.322L494.381 496.454C491.774 496.893 490.777 495.864 489.524 492.597L484.755 483.618C478.44 479.024 474.641 479.206 467.58 482.604L462.8 487.097C460.005 489.81 458.415 490.282 455.51 488.047L449.48 484.032C446.804 482.223 443.817 480.067 447.592 474.156C449.187 471.161 452.044 468.571 452.207 466.432C452.587 461.433 450.799 455.738 446.185 453.436C444.764 452.727 440.987 453.044 439.148 452.495L430.487 451.978C429.046 451.939 428.394 450.948 427.558 447.095L426.055 440.478C425.398 436.863 425.927 435.921 427.401 434.883L431.341 432.202C441.208 425.644 445.731 419.033 435.468 405.806C431.926 402.39 431.632 400.133 434.303 396.668L438.833 389.575C440.245 387.53 441.811 387.661 444.951 388.468C460.646 392.988 466.141 389.901 467.673 370.334Z" stroke="white" stroke-width="4"/>
<path d="M411.739 427.014L416.511 431.502L412.149 437.334L405.28 435.132L401.34 437.813L400.746 446.716L393.456 447.666L389.523 441.366L386.088 440.265L380.051 445.232L374.44 442.556L375.789 432.471L372.607 429.479L365.57 428.538L364.822 420.738L370.522 418.293L371.867 412.698L367.934 406.397L370.537 400.329L377.406 402.531L382.687 398.747L383.113 391.104L389.817 390.076L393.079 396.928L399.53 397.791L404.394 392.667L410.255 397.943L407.652 404.011L410.665 408.263L414.686 409.443L418.791 409.992L418.952 417.713L412.666 420.08L411.739 427.014Z" stroke="white" stroke-width="4"/>
<path d="M420.103 444.814L408.96 443.324C400.84 458.3 395.638 457.936 385.663 447.907L376.441 454.373C380.447 468.154 380.2 474.345 362.934 475.023L360.746 486.921C373.425 493.672 376.093 498.731 364.495 512.445L371.023 521.659C385.98 515.528 389.514 519.345 389.445 535.672L401.005 538.502C407.45 523.391 412.59 521.578 425.057 532.736L433.022 526.744C429.337 510.2 433.216 506.076 447.284 504.912L448.802 493.566C437.317 487.055 434.937 481.183 441.244 472.023C442.249 470.565 443.473 469.023 444.917 467.382L438.525 458.827C427.163 462.423 419.958 466.257 420.103 444.814Z" stroke="white" stroke-width="4"/>
<path d="M331.799 392.707L311.676 366.479C310.597 364.846 310.305 363.842 311.173 361.648L315.019 359.294C316.09 358.145 316.246 357.367 314.616 355.429L183.167 173.787C179.727 169.153 177.369 170.778 173.048 174.841L153.026 149.58C152.583 147.772 152.647 146.154 152.521 144.749M331.799 392.707C335.43 397.273 338.673 397.117 346.977 391.125L516.617 281.633C526.513 274.587 526.299 270.117 520.674 261.676L342.304 22.4144C336.738 15.5289 332.72 15.1691 323.788 21.4141L158.498 133.383C153.593 136.59 152.035 139.366 152.521 144.749M331.799 392.707C333.631 397.297 332.931 400.156 329.058 405.689L261.011 508.499L247.545 526.507C241.041 529.271 237.636 529.083 232.064 525.19L23.4672 231.453C16.4925 222.592 15.4952 218.02 21.3524 211.162L144.123 142.694C144.976 142.231 149.398 140.966 152.521 144.749M341.322 366.319L183.985 152.213C179.659 146.53 180.217 144.627 183.99 142.446C186.496 139.816 188.484 141.492 192.79 148.365L346.386 356.025C348.648 359.633 350.736 359.722 355.694 357.008L359.541 354.654C362.636 352.789 361.842 350.888 358.735 346.924L204.535 133.467C202.393 130.679 203.381 129.133 206.866 126.387L227.919 112.473C231.986 109.393 232.773 109.274 235.002 111.734L237.328 114.422C239.411 116.54 239.005 117.859 236.92 120.325L229.329 126C226.286 128.237 225.381 129.403 225.785 131.253L376.954 335.258C380.69 340.276 383.166 340.705 388.387 336.996L392.132 333.676C393.825 332.174 393.651 330.899 391.528 327.878L245.721 126.245C243.511 123.278 242.833 121.883 244.104 120.553C245.88 119.402 246.813 119.558 248.353 122.063L254.42 131.198C257.526 135.54 260.366 138.971 264.232 137.013L268.989 133.587C272.151 131.255 271.32 128.781 266.87 123.064L254.837 105.76C252.56 102.001 251.607 99.9788 252.919 97.1697M276.596 98.6088C273.082 95.5801 268.171 86.3489 265.037 89.8989C262.397 93.1322 261.644 93.1229 264.05 96.0096L268.702 101.385C271.157 104.351 270.52 106.244 268.395 108.254C264.222 110.593 264.17 111.968 267.076 115.228L270.615 119.743C273.265 123.775 274.848 123.978 277.9 120.937C279.13 119.273 280.285 119.255 283.261 123.309L289.026 129.545C291.914 132.641 293.212 130.938 295.097 128.912C298.099 126.282 298.675 127.476 301.37 130.212C302.93 132.978 301.434 135.055 294.181 139.751C288.677 144.069 287.833 146.741 292.354 151.662C295.255 155.588 298.513 155.964 304.597 151.363C311.008 146.502 313.7 146.741 316.942 152.03L322.907 160.199C325.596 163.984 323.914 165.739 320.677 168.245L313.997 172.848C311.366 175.209 310.296 176.393 313.791 180.683L362.63 246.893C366.408 252.247 368.713 252.562 373.051 248.737C378.491 243.726 381.475 243.859 386.608 251.231L430.191 306.268C432.587 309.64 431.696 311.647 427.05 315.386L421.381 319.883C417.789 322.507 415.604 322.757 410.86 317.073L370.212 260.753M343.865 135.55C329.961 143.88 324.933 149.444 337.88 166.452L376.101 219.118C385.253 232.937 390.167 234.334 398.66 229.464L442.79 201.423C457.04 192.549 456.755 186.575 446.143 174.702L406.627 122.171M236.62 519.832C240.644 523.307 242.914 522.874 246.739 518.777L326.531 401.069C329.154 396.96 329.426 394.786 327.548 391.196L148.977 150.002C147.234 147.303 145.802 147.2 142.704 148.702L27.7261 213.428C22.5403 216.249 21.8653 218.656 24.7862 224.478L236.62 519.832Z" stroke="white" stroke-width="3"/>
</svg>
