<svg width="598" height="515" viewBox="0 0 598 515" fill="none" xmlns="http://www.w3.org/2000/svg">
<path d="M239.51 161.908L267.808 178.997C269.408 180.124 270.046 180.953 270.037 183.312L267.314 186.906C266.735 188.366 266.873 189.148 269.098 190.359L457.709 311.596C462.602 314.658 464.204 312.285 466.748 306.926L494.599 323.152C495.671 324.675 496.201 326.205 496.831 327.467M239.51 161.908C234.464 158.979 231.502 160.306 225.952 168.913L107.889 332.703C101.241 342.871 103.07 346.956 111.384 352.766L364.69 510.558C372.383 514.941 376.256 513.812 382.297 504.741L495.407 340.23C498.806 335.455 499.245 332.303 496.831 327.467M239.51 161.908C236.131 158.301 235.741 155.384 237.33 148.819L263.225 28.28L269.201 6.60282C274.251 1.65839 277.49 0.593015 284.097 2.18666L585.406 199.69C595.13 205.4 597.725 209.294 594.77 217.814L505.4 326.32C504.774 327.062 501.117 329.852 496.831 327.467M240.26 189.951L464.81 331.984C470.91 335.7 471.084 337.675 468.366 341.082C466.991 344.444 464.528 343.608 458.013 338.776L239.296 201.383C235.874 198.848 233.898 199.526 230.269 203.86L227.546 207.454C225.343 210.319 226.776 211.8 231.114 214.359L452.506 356.93C455.517 358.747 455.16 360.546 452.916 364.373L438.383 385.004C435.718 389.354 435.029 389.752 432.056 388.273L428.91 386.618C426.199 385.405 426.096 384.029 427.139 380.973L432.14 372.921C434.158 369.728 434.576 368.313 433.525 366.738L218.4 231.863C213.092 228.551 210.63 229.055 207.12 234.411L204.842 238.869C203.813 240.884 204.44 242.008 207.518 244.047L416.786 378.667C419.925 380.625 421.065 381.676 420.366 383.379C419.131 385.097 418.206 385.293 415.858 383.521L406.88 377.225C402.404 374.314 398.51 372.155 395.623 375.387L392.442 380.311C390.348 383.635 392.023 385.635 398.251 389.338L415.763 401.066C419.254 403.736 420.878 405.272 420.68 408.366M398.108 415.655C402.484 417.195 410.421 424.002 412.045 419.553C413.325 415.58 414.03 415.314 410.738 413.503L404.446 410.193C401.079 408.327 400.983 406.331 402.229 403.685C405.262 399.985 404.81 398.686 400.915 396.709L395.974 393.795C392.036 391.007 390.488 391.394 388.755 395.338C388.216 397.336 387.147 397.774 382.898 395.084L375.257 391.378C371.439 389.548 370.851 391.606 369.834 394.18C367.997 397.723 367.026 396.821 363.519 395.256C361.058 393.249 361.694 390.769 366.736 383.752C370.288 377.726 370.1 374.929 364.096 371.995C359.964 369.397 356.793 370.234 352.804 376.736C348.607 383.6 346.012 384.357 341.066 380.614L332.533 375.182C328.65 372.636 329.577 370.389 331.678 366.876L336.221 360.155C337.81 356.997 338.375 355.505 333.557 352.784L263.946 308.929C258.476 305.32 256.214 305.867 253.569 311.01C250.33 317.658 247.502 318.622 240.035 313.629L179.391 278.263C175.931 275.995 176.029 273.802 178.993 268.627L182.632 262.373C185.021 258.62 186.965 257.591 193.454 261.155L251.833 298.785M322.001 405.773C331.913 392.949 334.567 385.935 316.312 374.816L261.524 339.703C247.965 330.17 242.88 330.66 236.746 338.291L205.872 380.487C195.837 393.944 198.28 399.404 212.489 406.592L268.432 441.107M281.807 8.83723C276.794 7.06766 274.838 8.2977 272.769 13.5074L241.367 152.201C240.423 156.984 240.962 159.107 244.019 161.765L498.216 321.283C500.823 323.162 502.194 322.735 504.532 320.208L588.009 218.027C591.81 213.511 591.561 211.023 586.719 206.666L281.807 8.83723Z" stroke="white" stroke-width="3"/>
<path d="M77.5413 189.726L68.5413 181.726C74.0572 172.284 79.1532 167.632 91.0413 160.226L98.5413 170.726L117.541 162.726L116.041 148.726L116.447 148.684C128.831 147.403 135.027 146.763 148.041 148.726L146.541 162.226L167.041 170.226L174.041 160.226C183.753 167.285 188.874 171.932 196.541 183.226L186.541 189.726L195.041 210.726L206.041 208.726C209.03 220.641 209.677 227.468 206.541 240.226L195.041 237.726L186.541 258.226L195.041 265.226C189.233 276.757 183.836 281.862 172.041 288.726L165.041 279.226L146.541 286.226L148.041 300.226H116.041L117.041 286.226L98.0413 278.226L91.0413 288.726C79.1661 280.964 73.9682 275.934 68.5413 265.226L77.5413 258.226L69.5413 237.726L57.0413 239.226C55.2533 227.806 55.0858 221.181 57.0413 208.726L70.0413 209.726L77.5413 189.726Z" fill="#C0C0C0"/>
<path d="M215.543 228.226V220.226L238.043 220.726C239.984 216.258 241.531 214.288 246.043 212.726C248.494 212.296 249.926 212.373 252.543 212.726C256.329 213.344 258.435 215.288 260.543 218.226C261.871 220.271 262.082 221.63 262.043 224.226C261.877 227.474 261.287 228.878 260.043 231.226C256.648 236.228 253.759 236.227 248.677 236.226L248.543 236.226C243.063 235.523 241.262 233.84 238.543 228.226H215.543Z" fill="#C0C0C0"/>
<path d="M193.043 281.226L188.043 286.226L205.043 303.726H238.043L242.043 309.226C246.17 312.837 248.794 313.096 255.543 310.726C260.09 308.009 261.752 305.714 262.043 299.226C260.668 293.953 259.849 291.034 254.043 288.726C245.583 287.204 241.986 288.769 237.543 295.726L208.543 296.226L193.043 281.226Z" fill="#C0C0C0"/>
<path d="M136.043 307.226H127.543V330.726L123.543 333.726C119.408 337.39 119.245 339.977 120.043 345.226L120.067 345.29C121.607 349.454 122.949 353.084 131.043 354.226C139.506 353.74 143.44 351.728 143.543 342.226C142.382 335.819 141.157 333.046 135.543 330.226L136.043 307.226Z" fill="#C0C0C0"/>
<path d="M54.043 296.226H25.043C24.0379 292.338 22.6249 290.58 18.043 288.226C14.9188 287.532 13.1732 287.593 10.043 288.226C5.53498 289.303 4.57152 291.353 2.54303 294.726C0.755243 299.883 1.35425 302.177 2.54303 306.226C4.76853 309.807 5.95235 310.668 8.04303 311.726C12.6955 312.581 14.9229 312.649 18.043 311.726C22.1113 309.442 23.6042 307.666 25.043 303.726H58.543L75.043 286.226L69.543 280.726L54.043 296.226Z" fill="#C0C0C0"/>
<path d="M48.0427 220.226H25.5427L22.0427 215.726C20.6088 214.152 19.6797 213.445 17.5427 212.726C12.6903 211.751 10.0744 211.656 6.04269 214.226C3.8308 215.749 2.86933 216.866 1.54269 219.226C-0.268904 223.93 0.647363 225.507 1.54269 228.726C3.51483 232.643 5.03701 233.956 8.04269 235.726C11.8354 236.889 13.89 236.536 17.5427 235.726C22.2643 233.407 23.6992 231.643 25.5427 228.226L48.0427 228.726V220.226Z" fill="#C0C0C0"/>
<path d="M57.5391 144.226H24.5391C23.2917 141.069 22.1343 139.474 18.5391 137.226C15.6896 136.115 13.8861 136.167 10.5391 136.726C6.02102 137.89 4.31805 139.363 2.03906 142.726C0.721934 146.312 0.655802 148.385 2.03906 152.226C4.18025 156.03 5.54763 157.439 8.03906 159.726C12.6717 161.288 14.6819 161.061 18.0391 160.226C22.4032 157.85 23.9922 156.097 25.0391 152.226L55.0391 152.726L70.0391 167.726L75.5391 162.226L57.5391 144.226Z" fill="#C0C0C0"/>
<path d="M135.5 140.771V118.271C138.825 116.463 140.952 115.177 143 112.271C144.931 107.372 145.29 104.783 143 100.771C141.191 98.1095 139.904 96.8736 137.5 94.7709C133.61 92.8572 131.241 92.8035 127 94.7709C122.892 97.0193 121.897 98.5559 120 101.271C118.835 104.786 118.997 106.756 120 110.271C122.088 114.632 124.081 116.101 128 118.271V140.771H135.5Z" fill="#C0C0C0"/>
<path d="M193.539 168.227L188.039 162.726L205.039 144.727H238.039C239.166 141.874 239.492 139.196 244.539 136.727C247.617 136.048 249.331 136.138 253.039 136.727C256.914 137.718 257.501 139.328 259.539 142.227C261.946 145.606 262.932 150.083 259.039 156.227C255.82 160.216 253.856 160.061 249.539 160.227C245.137 160.346 241.967 159.44 238.039 152.727H208.039L193.539 168.227Z" fill="#C0C0C0"/>
<path d="M77.5413 189.726L68.5413 181.726C74.0572 172.284 79.1532 167.632 91.0413 160.226L98.5413 170.726L117.541 162.726L116.041 148.726L116.447 148.684C128.831 147.403 135.027 146.763 148.041 148.726L146.541 162.226L167.041 170.226L174.041 160.226C183.753 167.285 188.874 171.932 196.541 183.226L186.541 189.726L195.041 210.726L206.041 208.726C209.03 220.641 209.677 227.468 206.541 240.226L195.041 237.726L186.541 258.226L195.041 265.226C189.233 276.757 183.836 281.862 172.041 288.726L165.041 279.226L146.541 286.226L148.041 300.226H116.041L117.041 286.226L98.0413 278.226L91.0413 288.726C79.1661 280.964 73.9682 275.934 68.5413 265.226L77.5413 258.226L69.5413 237.726L57.0413 239.226C55.2533 227.806 55.0858 221.181 57.0413 208.726L70.0413 209.726L77.5413 189.726Z" stroke="black"/>
<path d="M215.543 228.226V220.226L238.043 220.726C239.984 216.258 241.531 214.288 246.043 212.726C248.494 212.296 249.926 212.373 252.543 212.726C256.329 213.344 258.435 215.288 260.543 218.226C261.871 220.271 262.082 221.63 262.043 224.226C261.877 227.474 261.287 228.878 260.043 231.226C256.648 236.228 253.759 236.227 248.677 236.226L248.543 236.226C243.063 235.523 241.262 233.84 238.543 228.226H215.543Z" stroke="black"/>
<path d="M193.043 281.226L188.043 286.226L205.043 303.726H238.043L242.043 309.226C246.17 312.837 248.794 313.096 255.543 310.726C260.09 308.009 261.752 305.714 262.043 299.226C260.668 293.953 259.849 291.034 254.043 288.726C245.583 287.204 241.986 288.769 237.543 295.726L208.543 296.226L193.043 281.226Z" stroke="black"/>
<path d="M136.043 307.226H127.543V330.726L123.543 333.726C119.408 337.39 119.245 339.977 120.043 345.226L120.067 345.29C121.607 349.454 122.949 353.084 131.043 354.226C139.506 353.74 143.44 351.728 143.543 342.226C142.382 335.819 141.157 333.046 135.543 330.226L136.043 307.226Z" stroke="black"/>
<path d="M54.043 296.226H25.043C24.0379 292.338 22.6249 290.58 18.043 288.226C14.9188 287.532 13.1732 287.593 10.043 288.226C5.53498 289.303 4.57152 291.353 2.54303 294.726C0.755243 299.883 1.35425 302.177 2.54303 306.226C4.76853 309.807 5.95235 310.668 8.04303 311.726C12.6955 312.581 14.9229 312.649 18.043 311.726C22.1113 309.442 23.6042 307.666 25.043 303.726H58.543L75.043 286.226L69.543 280.726L54.043 296.226Z" stroke="black"/>
<path d="M48.0427 220.226H25.5427L22.0427 215.726C20.6088 214.152 19.6797 213.445 17.5427 212.726C12.6903 211.751 10.0744 211.656 6.04269 214.226C3.8308 215.749 2.86933 216.866 1.54269 219.226C-0.268904 223.93 0.647363 225.507 1.54269 228.726C3.51483 232.643 5.03701 233.956 8.04269 235.726C11.8354 236.889 13.89 236.536 17.5427 235.726C22.2643 233.407 23.6992 231.643 25.5427 228.226L48.0427 228.726V220.226Z" stroke="black"/>
<path d="M57.5391 144.226H24.5391C23.2917 141.069 22.1343 139.474 18.5391 137.226C15.6896 136.115 13.8861 136.167 10.5391 136.726C6.02102 137.89 4.31805 139.363 2.03906 142.726C0.721934 146.312 0.655802 148.385 2.03906 152.226C4.18025 156.03 5.54763 157.439 8.03906 159.726C12.6717 161.288 14.6819 161.061 18.0391 160.226C22.4032 157.85 23.9922 156.097 25.0391 152.226L55.0391 152.726L70.0391 167.726L75.5391 162.226L57.5391 144.226Z" stroke="black"/>
<path d="M135.5 140.771V118.271C138.825 116.463 140.952 115.177 143 112.271C144.931 107.372 145.29 104.783 143 100.771C141.191 98.1095 139.904 96.8736 137.5 94.7709C133.61 92.8572 131.241 92.8035 127 94.7709C122.892 97.0193 121.897 98.5559 120 101.271C118.835 104.786 118.997 106.756 120 110.271C122.088 114.632 124.081 116.101 128 118.271V140.771H135.5Z" stroke="black"/>
<path d="M193.539 168.227L188.039 162.726L205.039 144.727H238.039C239.166 141.874 239.492 139.196 244.539 136.727C247.617 136.048 249.331 136.138 253.039 136.727C256.914 137.718 257.501 139.328 259.539 142.227C261.946 145.606 262.932 150.083 259.039 156.227C255.82 160.216 253.856 160.061 249.539 160.227C245.137 160.346 241.967 159.44 238.039 152.727H208.039L193.539 168.227Z" stroke="black"/>
</svg>
