<svg width="665" height="665" viewBox="0 0 665 665" fill="none" xmlns="http://www.w3.org/2000/svg">
<path d="M242.631 234.988L269.442 254.327C270.945 255.581 271.513 256.459 271.312 258.81L268.305 262.17C267.609 263.578 267.683 264.368 269.801 265.756L447.903 401.964C452.53 405.414 454.321 403.179 457.292 398.046L483.729 416.488C484.673 418.093 485.076 419.661 485.601 420.971M242.631 234.988C237.841 231.658 234.78 232.74 228.548 240.865L97.5266 394.486C90.0723 404.08 91.562 408.3 99.3753 414.768L338.977 592.682C346.286 597.677 350.238 596.867 356.999 588.319L483.142 433.575C486.919 429.094 487.613 425.987 485.601 420.971M242.631 234.988C239.557 231.118 239.406 228.179 241.525 221.766L277.159 103.738L284.883 82.6202C290.318 78.1038 293.633 77.306 300.089 79.4329L584.296 300.839C593.523 307.322 595.792 311.414 592.152 319.666L494.235 420.526C493.551 421.214 489.679 423.697 485.601 420.971M241.093 262.999L453.319 422.863C459.096 427.063 459.108 429.046 456.121 432.22C454.477 435.458 452.09 434.425 445.991 429.078L239.2 274.315C235.996 271.509 233.971 272.024 230.002 276.048L226.994 279.408C224.565 282.084 225.873 283.676 229.988 286.581L439.023 446.723C441.876 448.779 441.373 450.544 438.825 454.174L422.658 473.552C419.647 477.67 418.928 478.011 416.085 476.295L413.085 474.389C410.482 472.959 410.492 471.579 411.78 468.618L417.42 461.001C419.692 457.983 420.224 456.606 419.305 454.951L215.889 302.99C210.869 299.257 208.374 299.558 204.439 304.611L201.806 308.867C200.616 310.792 201.149 311.964 204.05 314.246L401.65 465.476C404.619 467.683 405.669 468.824 404.833 470.464C403.463 472.076 402.524 472.195 400.329 470.238L391.894 463.232C387.67 459.965 383.965 457.495 380.825 460.482L377.252 465.131C374.894 468.273 376.401 470.403 382.307 474.601L398.804 487.717C402.066 490.663 403.56 492.326 403.11 495.394M380.018 500.819C384.254 502.71 391.61 510.141 393.592 505.84C395.192 501.984 395.916 501.777 392.782 499.703L386.781 495.891C383.577 493.756 383.644 491.76 385.101 489.224C388.427 485.784 388.081 484.452 384.36 482.165L379.673 478.857C375.976 475.758 374.402 476.017 372.353 479.807C371.653 481.754 370.552 482.103 366.536 479.076L359.222 474.76C355.566 472.624 354.812 474.628 353.589 477.11C351.469 480.492 350.575 479.514 347.207 477.668C344.918 475.467 345.755 473.047 351.352 466.465C355.383 460.748 355.424 457.945 349.679 454.531C345.772 451.605 342.544 452.181 338.038 458.336C333.295 464.835 330.648 465.379 326.023 461.245L317.961 455.135C314.298 452.281 315.405 450.117 317.785 446.787L322.861 440.459C324.702 437.441 325.387 435.999 320.807 432.895L255.002 383.512C249.845 379.469 247.546 379.83 244.49 384.74C240.72 391.103 237.823 391.833 230.788 386.247L173.228 346.056C169.964 343.514 170.241 341.336 173.617 336.42L177.754 330.483C180.441 326.937 182.462 326.07 188.639 330.151L243.757 372.415M304.971 484.766C315.895 472.792 319.112 466.018 301.824 453.448L250.08 413.987C237.343 403.38 232.235 403.454 225.5 410.56L191.288 450.099C180.19 462.693 182.18 468.334 195.756 476.656L248.7 515.616M297.264 85.8747C292.412 83.7024 290.362 84.7689 287.875 89.7926L245.274 225.465C243.942 230.155 244.307 232.315 247.137 235.214L487.486 414.92C489.931 417.005 491.332 416.692 493.868 414.363L585.397 319.327C589.553 315.135 589.508 312.635 585.037 307.898L297.264 85.8747Z" stroke="white" stroke-width="3"/>
<path d="M570.211 206.681C578.905 212.41 581.991 228.56 584.859 235.81L524.359 306.81L410.26 309.56C410.26 309.56 401.003 308.28 394.225 302.191C384.716 293.036 384.665 291.461 381.833 285.245C379.001 279.03 380.576 282.04 377.433 271.197C376.408 264.756 375.713 258.639 376.726 249.147C377.738 239.655 382.713 231.091 389.12 225.1C394.969 219.132 399.257 216.617 408.494 213.443C408.141 209.119 408.762 206.271 410.721 200.758C413.819 193.879 416.792 191.661 422.153 187.78C427.486 185.28 430.678 185.36 436.62 187.316C438.746 179.032 441.118 174.149 447.75 164.886C457.371 154.658 460.838 152.226 465.708 150.121C480.786 143.57 486.819 144.169 497.171 145.959C512.82 150.088 518.969 155.924 529.442 166.996C537.04 177.718 540.491 184.379 542.34 199.692C553.32 198.042 559.406 199.449 570.211 206.681Z" fill="#202020"/>
<path d="M394.225 302.191C384.716 293.036 384.665 291.461 381.833 285.245C379.001 279.03 380.576 282.04 377.433 271.197C376.408 264.756 375.713 258.639 376.726 249.147C377.738 239.655 382.713 231.091 389.12 225.1C394.969 219.132 399.257 216.617 408.494 213.443C408.141 209.119 408.762 206.271 410.721 200.758C413.819 193.879 416.792 191.661 422.153 187.78C427.486 185.28 430.678 185.36 436.62 187.316C438.746 179.032 441.118 174.149 447.75 164.886C457.371 154.658 460.838 152.226 465.708 150.121C480.786 143.57 486.819 144.169 497.171 145.959C512.82 150.088 518.969 155.924 529.442 166.996C537.04 177.718 540.491 184.379 542.34 199.692C553.32 198.042 559.406 199.449 570.211 206.681C578.905 212.41 581.991 228.56 584.859 235.81L524.359 306.81L410.26 309.56M394.225 302.191C401.003 308.28 410.26 309.56 410.26 309.56M394.225 302.191L410.26 309.56" stroke="white" stroke-width="4"/>
<path d="M524.507 265.517C524.491 265.066 524.49 264.935 524.502 265.091C524.598 256.964 535.309 247.315 557.994 242.37C581.078 237.339 589.762 237.188 605.24 237.702C620.718 238.216 638.422 246.098 638.422 246.098C646.532 250.121 649.167 253.455 650.764 261.469L652.329 310.293L653.592 349.669L654.933 391.501C651.977 397.072 649.42 400.336 637.026 407.841C626.329 414.277 617.77 415.222 599.11 416.057C583.375 416.397 575.154 417.72 559.554 414.172C541.479 408.582 535.64 404.362 529.963 394.625L528.7 355.25C528.7 355.25 525.047 275.284 524.55 265.92C524.526 265.784 524.511 265.649 524.507 265.517Z" fill="#8B8A8A"/>
<path d="M524.507 265.517C524.226 257.304 528.7 355.25 528.7 355.25M524.507 265.517C524.787 273.73 563.455 289.495 592.389 288.566C621.323 287.638 648.389 276.757 650.764 261.469M524.507 265.517C524.226 257.304 534.911 247.402 557.994 242.37C581.078 237.339 589.762 237.188 605.24 237.702C620.718 238.216 638.422 246.098 638.422 246.098C646.532 250.121 649.167 253.455 650.764 261.469M528.7 355.25L529.963 394.625C535.64 404.362 541.479 408.582 559.554 414.172C575.154 417.72 583.375 416.397 599.11 416.057C617.77 415.222 626.329 414.277 637.026 407.841C649.42 400.336 651.977 397.072 654.933 391.501L652.329 310.293M528.7 355.25C542.867 368.728 555.56 371.731 577.968 372.589C600.377 373.448 613.529 373.026 629.159 367.795C644.79 362.564 651.65 357.008 653.592 349.669L652.329 310.293M650.764 261.469L652.329 310.293M652.329 310.293C644.467 317.039 639.675 321.899 625.216 326.929C616.377 329.906 607.771 329.709 591.122 331.175C577.778 331.143 570.148 330.777 555.461 327.589C545.311 325.57 540.161 323.04 531.434 317.323L527.337 312.724" stroke="white" stroke-width="4"/>
</svg>
