<svg width="684" height="677" viewBox="0 0 684 677" fill="none" xmlns="http://www.w3.org/2000/svg">
<path d="M9.45916 166.416L3.97102 144.456C0.303157 131.723 3.64806 127.978 15.9907 125.31L152.795 92.7492C167.193 89.7748 172.131 93.971 176.127 110.461L179.42 123.637M9.45916 166.416L34.1558 265.232C36.7575 278.082 39.1339 283.81 52.425 279.496L193.195 245.992C204.521 242.884 207.279 237.718 203.568 220.258L179.42 123.637M9.45916 166.416L179.42 123.637M96.7859 171.223L116.903 179.721C117.45 179.952 117.682 180.599 117.405 181.116L110.754 193.491L107.886 198.827M85.7747 169.191L77.2605 210.769M55.1496 181.133L39.9806 200.198C39.5707 200.713 39.772 201.48 40.3851 201.739L60.3015 210.152M130.882 223.598L57.5227 241.058M56.0693 134.383L65.9827 132.024M58.9371 129.047L61.1323 137.831M48.1387 136.271L38.2253 138.63M43.0757 132.823L45.2709 141.606M30.2946 140.518L18.3985 143.349M22.7001 135.345L25.993 148.521M136.864 180.297L143.999 208.844L151.381 204.76L175.262 224.668L183.193 222.781L159.648 195.813L166.481 189.534L136.864 180.297Z" stroke="white" stroke-width="3"/>
<path d="M245.873 251.137L274.534 267.608C276.159 268.701 276.815 269.515 276.857 271.874L274.212 275.526C273.665 276.999 273.82 277.777 276.07 278.939L467.266 396.059C472.224 399.014 473.774 396.607 476.201 391.194L504.398 406.813C505.503 408.312 506.065 409.83 506.723 411.078M245.873 251.137C240.765 248.318 237.832 249.709 232.47 258.434L117.986 424.745C111.56 435.055 113.477 439.099 121.915 444.728L378.582 596.991C386.368 601.206 390.216 599.993 396.059 590.793L505.576 423.869C508.871 419.022 509.241 415.86 506.723 411.078M245.873 251.137C242.416 247.604 241.963 244.696 243.41 238.099L266.685 117.026L272.19 95.2244C277.131 90.1717 280.346 89.0364 286.987 90.4864L592.506 281.411C602.352 286.908 605.031 290.745 602.262 299.328L515.264 409.746C514.655 410.501 511.06 413.37 506.723 411.078M247.231 279.157L474.807 416.288C480.986 419.871 481.203 421.842 478.559 425.307C477.258 428.698 474.777 427.915 468.159 423.226L246.515 290.607C243.039 288.147 241.077 288.868 237.544 293.28L234.899 296.932C232.758 299.844 234.223 301.293 238.616 303.758L463.047 441.496C466.097 443.246 465.779 445.053 463.619 448.927L449.536 469.869C446.966 474.275 446.286 474.688 443.281 473.274L440.101 471.688C437.363 470.534 437.231 469.16 438.207 466.082L443.032 457.924C444.981 454.688 445.368 453.264 444.283 451.712L226.284 321.533C220.906 318.337 218.455 318.894 215.062 324.325L212.882 328.831C211.897 330.868 212.547 331.979 215.669 333.95L427.807 464.002C430.987 465.891 432.15 466.917 431.488 468.634C430.291 470.379 429.37 470.595 426.984 468.874L417.871 462.775C413.334 459.962 409.394 457.887 406.578 461.181L403.504 466.173C401.482 469.542 403.2 471.505 409.508 475.072L427.269 486.417C430.817 489.011 432.475 490.511 432.344 493.609M409.934 501.386C414.343 502.831 422.426 509.464 423.954 504.981C425.147 500.981 425.846 500.7 422.515 498.961L416.154 495.788C412.746 493.995 412.607 492.001 413.795 489.329C416.748 485.565 416.267 484.276 412.33 482.384L407.327 479.577C403.33 476.875 401.791 477.296 400.143 481.277C399.648 483.286 398.589 483.746 394.282 481.15L386.563 477.61C382.706 475.863 382.162 477.934 381.202 480.529C379.442 484.111 378.451 483.23 374.912 481.742C372.408 479.788 372.99 477.295 377.879 470.171C381.299 464.068 381.051 461.277 374.985 458.473C370.797 455.965 367.645 456.871 363.798 463.458C359.75 470.411 357.173 471.225 352.147 467.59L343.498 462.344C339.561 459.883 340.439 457.616 342.463 454.059L346.859 447.241C348.379 444.049 348.912 442.544 344.036 439.929L273.49 397.593C267.944 394.104 265.694 394.7 263.161 399.899C260.067 406.616 257.261 407.641 249.688 402.811L188.29 368.768C184.782 366.576 184.832 364.381 187.683 359.143L191.186 352.811C193.494 349.007 195.415 347.937 201.98 351.359L261.161 387.715M333.632 493.157C343.263 480.12 345.765 473.05 327.273 462.329L271.737 428.413C257.974 419.176 252.901 419.776 246.934 427.539L216.981 470.394C207.241 484.065 209.801 489.471 224.163 496.349L280.842 529.643M284.842 97.185C279.791 95.5246 277.862 96.7967 275.907 102.05L247.519 241.392C246.678 246.194 247.264 248.305 250.378 250.897L507.974 404.866C510.621 406.687 511.982 406.231 514.264 403.654L595.507 299.687C599.209 295.09 598.906 292.607 593.971 288.356L284.842 97.185Z" stroke="white" stroke-width="3"/>
</svg>
