<svg width="698" height="694" viewBox="0 0 698 694" fill="none" xmlns="http://www.w3.org/2000/svg">
<path d="M182.416 420.926L219.5 395.008C221.798 393.631 223.189 393.293 226.136 394.613L229.121 400.015C230.626 401.55 231.68 401.81 234.43 399.699L490.777 231.017C497.322 226.595 495.242 223.273 489.95 217.118L525.706 191.278C528.206 190.782 530.413 190.969 532.343 190.881M182.416 420.926C175.952 425.613 175.969 430.057 183.656 441.775L323.046 680.376C332.079 694.336 338.204 694.315 350.087 687.137L688.068 457.804C697.82 450.613 698.557 445.141 690.561 432.548L547.52 199.745C543.433 192.843 539.732 190.544 532.343 190.881M182.416 420.926C176.029 423.152 172.162 422.021 164.832 416.39L28.4004 317.1L4.59789 297.593C1.21426 288.532 1.67889 283.889 7.33942 276.507L421.642 9.15816C434.181 0.160589 440.493 -0.9249 449.513 7.50042L535.663 179.524C536.244 180.719 537.705 186.842 532.343 190.881M217.916 435.551L520.224 233.448C528.257 227.878 530.824 228.757 533.578 234.048C537.021 237.634 534.609 240.251 524.949 245.72L231.684 443.101C226.613 445.975 226.364 448.824 229.773 455.769L232.758 461.171C235.12 465.517 237.767 464.546 243.377 460.539L544.605 262.685C548.548 259.925 550.602 261.371 554.143 266.302L571.888 295.933C575.851 301.682 575.967 302.764 572.467 305.663L568.651 308.68C565.629 311.399 563.85 310.764 560.605 307.763L553.308 297.039C550.433 292.742 548.895 291.434 546.341 291.874L258.219 486.159C251.13 490.962 250.394 494.321 255.147 501.685L259.46 507.008C261.41 509.413 263.164 509.254 267.423 506.534L551.976 319.436C556.167 316.595 558.115 315.752 559.857 317.572C561.322 320.07 561.052 321.336 557.533 323.29L544.674 331.029C538.549 335.012 533.686 338.686 536.128 344.091L540.523 350.804C543.519 355.269 546.951 354.283 555.039 348.546L579.429 333.146C584.708 330.261 587.531 329.08 591.292 331.046M587.884 363.33C592.239 358.71 605.159 352.558 600.496 348.057C596.236 344.25 596.294 343.221 592.201 346.335L584.569 352.369C580.364 355.546 577.814 354.559 575.195 351.531C572.251 345.683 570.374 345.529 565.74 349.304L559.352 353.869C553.678 357.247 553.304 359.399 557.276 363.756C559.477 365.539 559.431 367.119 553.708 370.943L544.831 378.445C540.422 382.206 542.671 384.084 545.327 386.785C548.74 391.049 547.072 391.764 543.168 395.282C539.291 397.247 536.542 395.075 530.562 384.873C524.993 377.085 521.391 375.768 514.388 381.651C508.844 385.379 508.132 389.81 514.052 398.409C520.31 407.469 519.818 411.136 512.39 415.246L500.859 422.906C495.519 426.352 493.222 423.946 489.993 419.368L484.105 409.954C481.036 406.213 479.483 404.678 473.405 409.196L379.909 471.946C372.359 476.786 371.788 479.919 376.754 486.083C383.274 493.825 382.91 497.897 372.52 504.468L294.619 560.711C289.863 563.782 287.173 562.442 282.344 555.862L276.539 547.838C273.17 542.766 272.962 539.763 281.021 533.623L360.497 481.47M533.286 453.06C522.742 433.542 515.44 426.33 491.398 442.997L417.066 492.054C397.615 503.727 395.406 510.361 401.549 522.269L437.204 584.312C448.471 604.335 456.657 604.308 473.535 590.521L547.762 539.686M14.3891 283.062C9.39313 288.352 9.84641 291.482 15.2158 296.962L171.303 413.216C176.762 417.052 179.718 417.556 184.741 415.206L525.375 185.716C529.172 183.497 529.4 181.545 527.534 177.218L446.027 16.0771C442.486 8.81526 439.235 7.74603 431.097 11.3857L14.3891 283.062Z" stroke="white" stroke-width="3"/>
</svg>
