<svg width="37" height="37" viewBox="0 0 37 37" fill="none" xmlns="http://www.w3.org/2000/svg">
<path d="M18.5371 3.87305C16.5673 3.87305 14.6167 4.26103 12.7969 5.01485C10.977 5.76867 9.32339 6.87357 7.93051 8.26645C5.11746 11.0795 3.53711 14.8948 3.53711 18.873C3.53711 25.503 7.84211 31.128 13.7971 33.123C14.5471 33.243 14.7871 32.778 14.7871 32.373V29.838C10.6321 30.738 9.74711 27.828 9.74711 27.828C9.05711 26.088 8.08211 25.623 8.08211 25.623C6.71711 24.693 8.18711 24.723 8.18711 24.723C9.68711 24.828 10.4821 26.268 10.4821 26.268C11.7871 28.548 13.9921 27.873 14.8471 27.513C14.9821 26.538 15.3721 25.878 15.7921 25.503C12.4621 25.128 8.96711 23.838 8.96711 18.123C8.96711 16.458 9.53711 15.123 10.5121 14.058C10.3621 13.683 9.83711 12.123 10.6621 10.098C10.6621 10.098 11.9221 9.69305 14.7871 11.628C15.9721 11.298 17.2621 11.133 18.5371 11.133C19.8121 11.133 21.1021 11.298 22.2871 11.628C25.1521 9.69305 26.4121 10.098 26.4121 10.098C27.2371 12.123 26.7121 13.683 26.5621 14.058C27.5371 15.123 28.1071 16.458 28.1071 18.123C28.1071 23.853 24.5971 25.113 21.2521 25.488C21.7921 25.953 22.2871 26.868 22.2871 28.263V32.373C22.2871 32.778 22.5271 33.258 23.2921 33.123C29.2471 31.113 33.5371 25.503 33.5371 18.873C33.5371 16.9032 33.1491 14.9527 32.3953 13.1328C31.6415 11.3129 30.5366 9.65932 29.1437 8.26645C27.7508 6.87357 26.0972 5.76867 24.2774 5.01485C22.4575 4.26103 20.5069 3.87305 18.5371 3.87305Z" fill="white"/>
</svg>
