<svg width="257" height="111" viewBox="0 0 257 111" fill="none" xmlns="http://www.w3.org/2000/svg">
<path d="M58.7878 31.92H68.6678V45.92C67.1211 46.4267 65.5611 46.8 63.9878 47.04C62.4145 47.28 60.6278 47.4 58.6278 47.4C55.6678 47.4 53.1745 46.8133 51.1478 45.64C49.1211 44.44 47.5745 42.7467 46.5078 40.56C45.4678 38.3467 44.9478 35.7333 44.9478 32.72C44.9478 29.7333 45.5345 27.1467 46.7078 24.96C47.8811 22.7733 49.5611 21.08 51.7478 19.88C53.9611 18.6533 56.6278 18.04 59.7478 18.04C61.3478 18.04 62.8545 18.1867 64.2678 18.48C65.7078 18.7733 67.0411 19.1867 68.2678 19.72L66.9078 22.84C65.8945 22.3867 64.7478 22 63.4678 21.68C62.2145 21.36 60.9078 21.2 59.5478 21.2C57.2811 21.2 55.3345 21.6667 53.7078 22.6C52.0811 23.5333 50.8411 24.8667 49.9878 26.6C49.1345 28.3067 48.7078 30.3467 48.7078 32.72C48.7078 34.9867 49.0678 37 49.7878 38.76C50.5345 40.4933 51.6945 41.8533 53.2678 42.84C54.8411 43.8 56.9078 44.28 59.4678 44.28C60.3211 44.28 61.0678 44.2533 61.7078 44.2C62.3745 44.12 62.9745 44.0267 63.5078 43.92C64.0678 43.8133 64.5878 43.7067 65.0678 43.6V35.12H58.7878V31.92ZM83.1294 25.2C85.7427 25.2 87.676 25.7733 88.9294 26.92C90.1827 28.0667 90.8094 29.8933 90.8094 32.4V47H88.2494L87.5694 43.96H87.4094C86.796 44.7333 86.156 45.3867 85.4894 45.92C84.8494 46.4267 84.1027 46.8 83.2494 47.04C82.4227 47.28 81.4094 47.4 80.2094 47.4C78.9294 47.4 77.7694 47.1733 76.7294 46.72C75.716 46.2667 74.916 45.5733 74.3294 44.64C73.7427 43.68 73.4494 42.48 73.4494 41.04C73.4494 38.9067 74.2894 37.2667 75.9694 36.12C77.6494 34.9467 80.236 34.3067 83.7294 34.2L87.3694 34.08V32.8C87.3694 31.0133 86.9827 29.7733 86.2094 29.08C85.436 28.3867 84.3427 28.04 82.9294 28.04C81.8094 28.04 80.7427 28.2133 79.7294 28.56C78.716 28.88 77.7694 29.2533 76.8894 29.68L75.8094 27.04C76.7427 26.5333 77.8494 26.1067 79.1294 25.76C80.4094 25.3867 81.7427 25.2 83.1294 25.2ZM84.1694 36.64C81.5027 36.7467 79.6494 37.1733 78.6094 37.92C77.596 38.6667 77.0894 39.72 77.0894 41.08C77.0894 42.28 77.4494 43.16 78.1694 43.72C78.916 44.28 79.8627 44.56 81.0094 44.56C82.8227 44.56 84.3294 44.0667 85.5294 43.08C86.7294 42.0667 87.3294 40.52 87.3294 38.44V36.52L84.1694 36.64ZM115.351 25.56V47H112.471L111.951 44.16H111.791C111.338 44.9067 110.751 45.52 110.031 46C109.311 46.48 108.525 46.8267 107.671 47.04C106.818 47.28 105.925 47.4 104.991 47.4C103.285 47.4 101.845 47.1333 100.671 46.6C99.5246 46.04 98.6579 45.1867 98.0713 44.04C97.4846 42.8933 97.1913 41.4133 97.1913 39.6V25.56H100.751V39.36C100.751 41.0667 101.138 42.3467 101.911 43.2C102.685 44.0533 103.885 44.48 105.511 44.48C107.111 44.48 108.365 44.1867 109.271 43.6C110.205 42.9867 110.858 42.1067 111.231 40.96C111.631 39.7867 111.831 38.3733 111.831 36.72V25.56H115.351ZM132.158 25.16C132.558 25.16 132.984 25.1867 133.438 25.24C133.918 25.2667 134.331 25.32 134.678 25.4L134.238 28.64C133.891 28.56 133.504 28.4933 133.078 28.44C132.678 28.3867 132.291 28.36 131.918 28.36C131.091 28.36 130.304 28.5333 129.558 28.88C128.811 29.2267 128.144 29.72 127.558 30.36C126.971 30.9733 126.504 31.72 126.158 32.6C125.838 33.48 125.678 34.4667 125.678 35.56V47H122.158V25.56H125.038L125.438 29.48H125.598C126.051 28.68 126.598 27.96 127.238 27.32C127.878 26.6533 128.611 26.1333 129.438 25.76C130.264 25.36 131.171 25.16 132.158 25.16ZM146.02 25.2C148.633 25.2 150.567 25.7733 151.82 26.92C153.073 28.0667 153.7 29.8933 153.7 32.4V47H151.14L150.46 43.96H150.3C149.687 44.7333 149.047 45.3867 148.38 45.92C147.74 46.4267 146.993 46.8 146.14 47.04C145.313 47.28 144.3 47.4 143.1 47.4C141.82 47.4 140.66 47.1733 139.62 46.72C138.607 46.2667 137.807 45.5733 137.22 44.64C136.633 43.68 136.34 42.48 136.34 41.04C136.34 38.9067 137.18 37.2667 138.86 36.12C140.54 34.9467 143.127 34.3067 146.62 34.2L150.26 34.08V32.8C150.26 31.0133 149.873 29.7733 149.1 29.08C148.327 28.3867 147.233 28.04 145.82 28.04C144.7 28.04 143.633 28.2133 142.62 28.56C141.607 28.88 140.66 29.2533 139.78 29.68L138.7 27.04C139.633 26.5333 140.74 26.1067 142.02 25.76C143.3 25.3867 144.633 25.2 146.02 25.2ZM147.06 36.64C144.393 36.7467 142.54 37.1733 141.5 37.92C140.487 38.6667 139.98 39.72 139.98 41.08C139.98 42.28 140.34 43.16 141.06 43.72C141.807 44.28 142.753 44.56 143.9 44.56C145.713 44.56 147.22 44.0667 148.42 43.08C149.62 42.0667 150.22 40.52 150.22 38.44V36.52L147.06 36.64ZM165.042 47L156.922 25.56H160.682L165.242 38.2C165.455 38.7867 165.682 39.44 165.922 40.16C166.162 40.88 166.375 41.5733 166.562 42.24C166.749 42.88 166.882 43.4267 166.962 43.88H167.122C167.229 43.4267 167.375 42.8667 167.562 42.2C167.775 41.5333 168.002 40.84 168.242 40.12C168.509 39.4 168.735 38.76 168.922 38.2L173.482 25.56H177.242L169.082 47H165.042Z" fill="#FEBE0D"/>
<path d="M24.9609 64.667C24.9609 61.1383 23.2682 58.9183 19.8828 58.0068C18.2812 57.5902 15.8464 57.3818 12.5781 57.3818C11.4583 57.3818 10.6641 57.3949 10.1953 57.4209V71.7764H14.0234C19.7917 71.7764 23.2487 70.4287 24.3945 67.7334C24.7721 66.848 24.9609 65.8258 24.9609 64.667ZM11.9336 84.7256L8.32031 84.6084C7.83854 84.6084 7.46094 84.6149 7.1875 84.6279L6.32812 84.667C5.83333 84.7061 5.30599 84.7256 4.74609 84.7256C4.19922 84.7256 3.75651 84.5889 3.41797 84.3154C3.07943 84.029 2.91016 83.6514 2.91016 83.1826C2.91016 82.7139 3.10547 82.3298 3.49609 82.0303C3.89974 81.7308 4.43359 81.5811 5.09766 81.5811H6.66016V57.7334C5.68359 57.9287 4.91536 58.0264 4.35547 58.0264C3.80859 58.0264 3.33333 57.8831 2.92969 57.5967C2.52604 57.2972 2.32422 56.9652 2.32422 56.6006C2.32422 55.4417 2.99479 54.7777 4.33594 54.6084C5.6901 54.4391 7.67578 54.3545 10.293 54.3545C12.9232 54.3545 14.8372 54.387 16.0352 54.4521C22.5977 54.7646 26.6146 56.9326 28.0859 60.9561C28.4635 62.0107 28.6523 63.1761 28.6523 64.4521C28.6523 67.0042 27.8841 69.1462 26.3477 70.8779C24.8242 72.6097 22.6497 73.749 19.8242 74.2959C21.0872 76.3792 22.1289 77.8311 22.9492 78.6514C24.4857 80.1878 25.9831 81.1058 27.4414 81.4053C28.8997 81.7048 29.7396 82.167 29.9609 82.792C30.026 83.0003 30.0586 83.2738 30.0586 83.6123C30.0586 83.9508 29.8893 84.2699 29.5508 84.5693C29.2122 84.8688 28.7305 85.0186 28.1055 85.0186C26.7253 85.0186 25.5078 84.7061 24.4531 84.0811C22.5651 82.9613 21.0417 81.7243 19.8828 80.3701C18.724 79.016 17.5456 77.1149 16.3477 74.667H10.1953V81.5811H11.5625C12.474 81.5811 13.112 81.7438 13.4766 82.0693C13.8411 82.3818 14.0234 82.7008 14.0234 83.0264C14.0234 84.1592 13.3268 84.7256 11.9336 84.7256ZM46.25 76.6006C44.1406 76.1969 42.2656 75.9951 40.625 75.9951C38.9974 75.9951 37.793 76.3206 37.0117 76.9717C36.2435 77.6097 35.8594 78.3389 35.8594 79.1592C35.8594 79.9795 36.2174 80.6566 36.9336 81.1904C37.6497 81.7113 38.6523 81.9717 39.9414 81.9717C42.5846 81.9717 44.6875 81.1188 46.25 79.4131V76.6006ZM46.6992 82.4404C45.2669 84.1592 42.8906 85.0186 39.5703 85.0186C37.3568 85.0186 35.5924 84.5107 34.2773 83.4951C32.9753 82.4795 32.3242 81.1058 32.3242 79.374C32.3242 76.4964 33.9193 74.6214 37.1094 73.749C38.1901 73.4626 39.5833 73.3193 41.2891 73.3193C43.0078 73.3193 44.6615 73.5146 46.25 73.9053V71.7568C46.25 69.6084 45.3906 68.2933 43.6719 67.8115C43.0599 67.6292 42.2396 67.5381 41.2109 67.5381C39.0104 67.5381 37.7409 68.124 37.4023 69.2959C37.194 69.9209 36.8229 70.3701 36.2891 70.6436C36.0547 70.7607 35.7878 70.8193 35.4883 70.8193C34.2513 70.8193 33.6328 70.1553 33.6328 68.8271C33.6328 67.6943 34.375 66.6917 35.8594 65.8193C37.3568 64.9469 39.2513 64.5107 41.543 64.5107C45.4232 64.5107 47.9297 65.8844 49.0625 68.6318C49.4401 69.5693 49.6289 70.6761 49.6289 71.9521V77.0107C49.6289 78.7816 49.7005 79.973 49.8438 80.585C49.987 81.1839 50.2539 81.6071 50.6445 81.8545C51.3346 82.2972 51.6797 82.8115 51.6797 83.3975C51.6797 84.4782 50.9961 85.0186 49.6289 85.0186C48.2747 85.0186 47.2982 84.1592 46.6992 82.4404ZM63.418 85.7607C63.418 91.6592 61.3802 94.6084 57.3047 94.6084C55.612 94.6084 54.2773 94.1592 53.3008 93.2607C52.3242 92.3623 51.8359 91.1774 51.8359 89.7061C51.8359 88.7555 52.0508 88.0003 52.4805 87.4404C52.9102 86.8805 53.4245 86.6006 54.0234 86.6006C55.2214 86.6006 55.8203 87.0824 55.8203 88.0459C55.8203 88.4105 55.7227 88.749 55.5273 89.0615C55.3451 89.387 55.2539 89.7451 55.2539 90.1357C55.2539 90.5394 55.4232 90.891 55.7617 91.1904C56.1133 91.4899 56.5104 91.6396 56.9531 91.6396C57.9167 91.6396 58.6328 91.249 59.1016 90.4678C59.5833 89.6995 59.8242 88.2998 59.8242 86.2686V69.0615C59.8242 68.2803 59.6159 67.8896 59.1992 67.8896L56.9531 68.1631C56.4323 68.1631 56.0091 68.0264 55.6836 67.7529C55.3581 67.4795 55.1953 67.1084 55.1953 66.6396C55.1953 66.1579 55.3776 65.7607 55.7422 65.4482C56.1198 65.1357 56.8034 64.96 57.793 64.9209C58.7826 64.8688 59.4987 64.7972 59.9414 64.7061C60.3841 64.6019 60.7227 64.5173 60.957 64.4521C61.1914 64.387 61.4518 64.3545 61.7383 64.3545C62.8581 64.3545 63.418 64.9795 63.418 66.2295V85.7607ZM63.4961 57.8506C63.4961 59.0876 62.9688 59.8949 61.9141 60.2725C61.6146 60.3766 61.1914 60.4287 60.6445 60.4287C60.0977 60.4287 59.5898 60.2139 59.1211 59.7842C58.6523 59.3545 58.418 58.7946 58.418 58.1045C58.418 57.4144 58.6589 56.8415 59.1406 56.3857C59.6224 55.93 60.2669 55.7021 61.0742 55.7021C61.8815 55.7021 62.487 55.9235 62.8906 56.3662C63.2943 56.7959 63.4961 57.2907 63.4961 57.8506Z" fill="white"/>
<path d="M103.448 62.728C106.296 62.728 108.68 63 110.6 63.544C112.552 64.088 114.008 64.984 114.968 66.232C115.96 67.48 116.456 69.144 116.456 71.224C116.456 72.568 116.2 73.768 115.688 74.824C115.208 75.848 114.472 76.712 113.48 77.416C112.52 78.088 111.336 78.552 109.928 78.808V79.048C111.368 79.272 112.664 79.688 113.816 80.296C115 80.904 115.928 81.768 116.6 82.888C117.272 84.008 117.608 85.464 117.608 87.256C117.608 89.336 117.128 91.112 116.168 92.584C115.208 94.024 113.832 95.128 112.04 95.896C110.28 96.632 108.168 97 105.704 97H93.656V62.728H103.448ZM104.312 77.32C107.256 77.32 109.272 76.856 110.36 75.928C111.448 74.968 111.992 73.56 111.992 71.704C111.992 69.816 111.32 68.472 109.976 67.672C108.664 66.84 106.552 66.424 103.64 66.424H97.976V77.32H104.312ZM97.976 80.92V93.352H104.888C107.928 93.352 110.04 92.76 111.224 91.576C112.408 90.392 113 88.84 113 86.92C113 85.704 112.728 84.648 112.184 83.752C111.672 82.856 110.792 82.168 109.544 81.688C108.328 81.176 106.664 80.92 104.552 80.92H97.976ZM134.043 70.84C137.179 70.84 139.499 71.528 141.003 72.904C142.507 74.28 143.259 76.472 143.259 79.48V97H140.187L139.371 93.352H139.179C138.443 94.28 137.675 95.064 136.875 95.704C136.107 96.312 135.211 96.76 134.187 97.048C133.195 97.336 131.979 97.48 130.539 97.48C129.003 97.48 127.611 97.208 126.363 96.664C125.147 96.12 124.187 95.288 123.483 94.168C122.779 93.016 122.427 91.576 122.427 89.848C122.427 87.288 123.435 85.32 125.451 83.944C127.467 82.536 130.571 81.768 134.763 81.64L139.131 81.496V79.96C139.131 77.816 138.667 76.328 137.739 75.496C136.811 74.664 135.499 74.248 133.803 74.248C132.459 74.248 131.179 74.456 129.963 74.872C128.747 75.256 127.611 75.704 126.555 76.216L125.259 73.048C126.379 72.44 127.707 71.928 129.243 71.512C130.779 71.064 132.379 70.84 134.043 70.84ZM135.291 84.568C132.091 84.696 129.867 85.208 128.619 86.104C127.403 87 126.795 88.264 126.795 89.896C126.795 91.336 127.227 92.392 128.091 93.064C128.987 93.736 130.123 94.072 131.499 94.072C133.675 94.072 135.483 93.48 136.923 92.296C138.363 91.08 139.083 89.224 139.083 86.728V84.424L135.291 84.568ZM163.589 70.792C166.661 70.792 168.981 71.544 170.549 73.048C172.117 74.52 172.901 76.92 172.901 80.248V97H168.725V80.536C168.725 78.456 168.261 76.904 167.333 75.88C166.405 74.856 164.949 74.344 162.965 74.344C160.117 74.344 158.149 75.144 157.061 76.744C155.973 78.344 155.429 80.648 155.429 83.656V97H151.205V71.272H154.613L155.237 74.776H155.477C156.053 73.88 156.757 73.144 157.589 72.568C158.453 71.96 159.397 71.512 160.421 71.224C161.445 70.936 162.501 70.792 163.589 70.792ZM190.621 70.84C193.757 70.84 196.077 71.528 197.581 72.904C199.085 74.28 199.837 76.472 199.837 79.48V97H196.765L195.949 93.352H195.757C195.021 94.28 194.253 95.064 193.453 95.704C192.685 96.312 191.789 96.76 190.765 97.048C189.773 97.336 188.557 97.48 187.117 97.48C185.581 97.48 184.189 97.208 182.941 96.664C181.725 96.12 180.765 95.288 180.061 94.168C179.357 93.016 179.005 91.576 179.005 89.848C179.005 87.288 180.013 85.32 182.029 83.944C184.045 82.536 187.149 81.768 191.341 81.64L195.709 81.496V79.96C195.709 77.816 195.245 76.328 194.317 75.496C193.389 74.664 192.077 74.248 190.381 74.248C189.037 74.248 187.757 74.456 186.541 74.872C185.325 75.256 184.189 75.704 183.133 76.216L181.837 73.048C182.957 72.44 184.285 71.928 185.821 71.512C187.357 71.064 188.957 70.84 190.621 70.84ZM191.869 84.568C188.669 84.696 186.445 85.208 185.197 86.104C183.981 87 183.373 88.264 183.373 89.896C183.373 91.336 183.805 92.392 184.669 93.064C185.565 93.736 186.701 94.072 188.077 94.072C190.253 94.072 192.061 93.48 193.501 92.296C194.941 91.08 195.661 89.224 195.661 86.728V84.424L191.869 84.568Z" fill="#FEBE0D"/>
</svg>
