<svg width="37" height="37" viewBox="0 0 37 37" fill="none" xmlns="http://www.w3.org/2000/svg">
<path d="M29.0371 5.37305C29.8328 5.37305 30.5958 5.68912 31.1584 6.25173C31.721 6.81434 32.0371 7.5774 32.0371 8.37305V29.373C32.0371 30.1687 31.721 30.9318 31.1584 31.4944C30.5958 32.057 29.8328 32.373 29.0371 32.373H8.03711C7.24146 32.373 6.4784 32.057 5.91579 31.4944C5.35318 30.9318 5.03711 30.1687 5.03711 29.373V8.37305C5.03711 7.5774 5.35318 6.81434 5.91579 6.25173C6.4784 5.68912 7.24146 5.37305 8.03711 5.37305H29.0371ZM28.2871 28.623V20.673C28.2871 19.3761 27.7719 18.1323 26.8549 17.2153C25.9378 16.2982 24.694 15.783 23.3971 15.783C22.1221 15.783 20.6371 16.563 19.9171 17.733V16.068H15.7321V28.623H19.9171V21.228C19.9171 20.073 20.8471 19.128 22.0021 19.128C22.5591 19.128 23.0932 19.3493 23.487 19.7431C23.8809 20.1369 24.1021 20.6711 24.1021 21.228V28.623H28.2871ZM10.8571 13.713C11.5255 13.713 12.1664 13.4475 12.639 12.975C13.1116 12.5024 13.3771 11.8614 13.3771 11.193C13.3771 9.79805 12.2521 8.65805 10.8571 8.65805C10.1848 8.65805 9.54 8.92513 9.06459 9.40053C8.58919 9.87594 8.32211 10.5207 8.32211 11.193C8.32211 12.588 9.46211 13.713 10.8571 13.713ZM12.9421 28.623V16.068H8.78711V28.623H12.9421Z" fill="white"/>
</svg>
