<svg width="37" height="37" viewBox="0 0 37 37" fill="none" xmlns="http://www.w3.org/2000/svg">
<path d="M29.1123 8.23813C27.7369 6.84929 26.0988 5.74808 24.2936 4.99867C22.4883 4.24927 20.5519 3.86665 18.5973 3.87313C10.4073 3.87313 3.7323 10.5481 3.7323 18.7381C3.7323 21.3631 4.4223 23.9131 5.7123 26.1631L3.6123 33.8731L11.4873 31.8031C13.6623 32.9881 16.1073 33.6181 18.5973 33.6181C26.7873 33.6181 33.4623 26.9431 33.4623 18.7531C33.4623 14.7781 31.9173 11.0431 29.1123 8.23813ZM18.5973 31.0981C16.3773 31.0981 14.2023 30.4981 12.2973 29.3731L11.8473 29.1031L7.1673 30.3331L8.4123 25.7731L8.11231 25.3081C6.87863 23.3387 6.22369 21.062 6.2223 18.7381C6.2223 11.9281 11.7723 6.37813 18.5823 6.37813C21.8823 6.37813 24.9873 7.66813 27.3123 10.0081C28.4637 11.1539 29.3762 12.5169 29.9967 14.0181C30.6173 15.5193 30.9336 17.1288 30.9273 18.7531C30.9573 25.5631 25.4073 31.0981 18.5973 31.0981ZM25.3773 21.8581C25.0023 21.6781 23.1723 20.7781 22.8423 20.6431C22.4973 20.5231 22.2573 20.4631 22.0023 20.8231C21.7473 21.1981 21.0423 22.0381 20.8323 22.2781C20.6223 22.5331 20.3973 22.5631 20.0223 22.3681C19.6473 22.1881 18.4473 21.7831 17.0373 20.5231C15.9273 19.5331 15.1923 18.3181 14.9673 17.9431C14.7573 17.5681 14.9373 17.3731 15.1323 17.1781C15.2973 17.0131 15.5073 16.7431 15.6873 16.5331C15.8673 16.3231 15.9423 16.1581 16.0623 15.9181C16.1823 15.6631 16.1223 15.4531 16.0323 15.2731C15.9423 15.0931 15.1923 13.2631 14.8923 12.5131C14.5923 11.7931 14.2773 11.8831 14.0523 11.8681H13.3323C13.0773 11.8681 12.6873 11.9581 12.3423 12.3331C12.0123 12.7081 11.0523 13.6081 11.0523 15.4381C11.0523 17.2681 12.3873 19.0381 12.5673 19.2781C12.7473 19.5331 15.1923 23.2831 18.9123 24.8881C19.7973 25.2781 20.4873 25.5031 21.0273 25.6681C21.9123 25.9531 22.7223 25.9081 23.3673 25.8181C24.0873 25.7131 25.5723 24.9181 25.8723 24.0481C26.1873 23.1781 26.1873 22.4431 26.0823 22.2781C25.9773 22.1131 25.7523 22.0381 25.3773 21.8581Z" fill="white"/>
</svg>
