<svg width="50" height="50" viewBox="0 0 50 50" fill="none" xmlns="http://www.w3.org/2000/svg">
<path d="M33.5893 29.7169C33.8362 27.6615 33.7624 27.3599 35.2932 27.6927L35.6819 27.7271C36.8592 27.7806 38.3995 27.5376 39.3038 27.1173C41.2514 26.2138 42.4061 24.7044 40.4858 25.1009C36.1049 26.0044 35.8038 24.5216 35.8038 24.5216C40.4299 17.6579 42.3639 8.94545 40.6948 6.81263C36.1424 0.995444 28.262 3.74623 28.1299 3.81771L28.0878 3.82591C27.2221 3.64583 26.2538 3.5388 25.1655 3.52123C23.1831 3.4888 21.6788 4.04115 20.5378 4.90638C20.5378 4.90638 6.47955 -0.885415 7.13345 12.19C7.27252 14.9716 11.1206 33.2376 15.71 27.7204C17.3874 25.7033 19.0085 23.9974 19.0085 23.9974C19.8135 24.5322 20.7772 24.8048 21.7881 24.7068L21.8663 24.6404C21.842 24.8908 21.8526 25.1357 21.8979 25.4255C20.7155 26.747 21.0631 26.979 18.6991 27.4654C16.3077 27.9583 17.7128 28.8357 18.6295 29.065C19.742 29.3435 22.3143 29.7376 24.053 27.3036L23.9838 27.5814C24.4479 27.9525 24.4163 30.2482 24.4819 31.8884C24.5475 33.5287 24.6577 35.0591 24.992 35.9622C25.3264 36.8646 25.721 39.1892 28.8276 38.5236C31.4237 37.9665 33.4085 37.1658 33.5893 29.7169Z" fill="black"/>
<path d="M27.8152 40.1444C26.441 40.1444 25.5465 39.6131 25.0027 39.0999C24.1824 38.326 23.857 37.3288 23.6629 36.7331L23.5789 36.4842C23.1875 35.4276 23.0551 33.9065 22.9765 31.9479C22.965 31.6417 22.9552 31.3355 22.9472 31.0292C22.9406 30.7944 22.9324 30.4999 22.9207 30.1909C22.4255 30.4268 21.9001 30.5929 21.3594 30.6846C20.3906 30.8502 19.3492 30.7963 18.2633 30.5249C17.4972 30.3334 16.7012 29.9366 16.2476 29.3233C14.9254 30.4815 13.664 30.3241 12.9769 30.0952C11.7648 29.6909 10.6801 28.5553 9.66014 26.6225C8.93396 25.2463 8.23123 23.4526 7.57146 21.292C6.42303 17.5291 5.69334 13.5659 5.62849 12.2651C5.42459 8.19204 6.52068 5.27954 8.88631 3.60884C12.6187 0.972507 18.273 2.52251 20.3344 3.22641C21.7191 2.39165 23.3484 1.98501 25.1898 2.01469C26.1789 2.03071 27.1203 2.11782 27.9949 2.27329C28.907 1.98657 30.7094 1.57485 32.7722 1.60024C36.573 1.64555 39.7226 3.1268 41.8801 5.88384C43.4195 7.85102 42.6586 11.9815 42.0676 14.269C41.2367 17.4858 39.7801 20.9081 37.991 23.887C38.4769 23.8905 39.1804 23.8319 40.1812 23.6256C42.1554 23.2178 42.7324 24.2764 42.889 24.7502C43.5168 26.6514 40.7883 28.0877 39.9371 28.4827C38.8465 28.9893 37.0687 29.2975 35.6125 29.2307L35.5488 29.2264L35.1664 29.1928L35.1285 29.5116L35.0922 29.8237C34.9945 33.5987 34.4551 35.9893 33.3453 37.5694C32.1824 39.2252 30.5656 39.6897 29.1418 39.9948C28.7062 40.0919 28.2615 40.142 27.8152 40.1444ZM24.9238 26.4045C25.8109 27.1143 25.8887 28.4499 25.9578 30.9459C25.9664 31.2573 25.9746 31.5522 25.9855 31.8276C26.0191 32.6612 26.0976 34.6135 26.4031 35.4385C26.4465 35.5549 26.4851 35.6737 26.5258 35.7987C26.8664 36.8424 27.0375 37.3655 28.5105 37.0499C29.7476 36.785 30.3832 36.5471 30.8808 35.8385C31.6043 34.8081 32.009 32.7366 32.0832 29.6795L33.5879 29.7163L32.0933 29.537L32.1371 29.1639C32.2804 27.9342 32.3836 27.0452 33.2058 26.4577C33.8652 25.9862 34.6172 26.0319 35.216 26.1397C34.5582 25.6432 34.3761 25.0596 34.3277 24.8206L34.2023 24.2026L34.5547 23.6791C36.5859 20.6651 38.2613 16.9608 39.1511 13.5159C40.0652 9.97602 39.7863 8.09594 39.5078 7.74048C35.8179 3.02524 29.4183 4.97173 28.7504 5.19321L28.6371 5.25415L28.0707 5.36001L27.7804 5.29985C26.9808 5.13384 26.0926 5.04204 25.1398 5.02641C23.6433 5.00141 22.4363 5.35493 21.4465 6.1061L20.7597 6.6268L19.9625 6.29829C18.2601 5.60219 13.2586 4.20259 10.6195 6.07173C9.15467 7.10923 8.48748 9.14243 8.63592 12.1147C8.68474 13.0959 9.35193 16.8104 10.4512 20.4135C11.9711 25.3924 13.3523 27.0459 13.9289 27.2385C14.0293 27.2725 14.2906 27.0694 14.5504 26.7577C16.2402 24.7252 17.8472 23.0311 17.9148 22.9596L18.7863 22.0428L19.8398 22.7428C20.2644 23.0252 20.7328 23.185 21.214 23.2151L23.7269 21.0721L23.3629 24.787C23.3547 24.8706 23.3508 24.9838 23.3836 25.1948L23.4929 25.8991L23.0191 26.4295L22.9644 26.4909L24.3449 27.1284L24.9238 26.4045Z" fill="black"/>
<path d="M40.4864 25.1006C36.1051 26.0041 35.804 24.5209 35.804 24.5209C40.4297 17.6573 42.3633 8.94436 40.6946 6.81194C36.1419 0.994754 28.2614 3.74593 28.1297 3.81741L28.0872 3.82483C27.2215 3.64554 26.2532 3.5385 25.1645 3.52093C23.1821 3.4885 21.6782 4.04046 20.5372 4.90569C20.5372 4.90569 6.47857 -0.885714 7.13248 12.1897C7.27154 14.9713 11.1196 33.2373 15.709 27.7201C17.3864 25.703 19.0071 23.9971 19.0071 23.9971C19.8122 24.5319 20.7758 24.8045 21.7864 24.7065L21.8649 24.6401C21.8407 24.8905 21.8516 25.1354 21.8961 25.4252C20.7141 26.7467 21.061 26.9787 18.6977 27.4651C16.3059 27.958 17.711 28.8354 18.6286 29.0647C19.7407 29.3432 22.3133 29.7373 24.0516 27.3034L23.9821 27.5811C24.4454 27.9522 24.7708 29.9948 24.7161 31.8463C24.6614 33.6979 24.6251 34.969 24.9903 35.9619C25.3555 36.9549 25.7192 39.1889 28.8262 38.5233C31.4223 37.9666 32.7676 36.5248 32.9551 34.1201C33.0879 32.4104 33.3883 32.6631 33.4075 31.1342L33.6489 30.4104C33.9266 28.0924 33.693 27.3448 35.2926 27.6928L35.6813 27.7268C36.8586 27.7807 38.3993 27.5373 39.3036 27.117C41.2512 26.2131 42.4063 24.7041 40.4864 25.1006Z" fill="#336791"/>
<path d="M27.973 39.2163C25.3828 39.2166 24.5625 37.1655 24.2266 36.3268C23.7355 35.0979 23.6293 30.3276 23.7387 26.4155C23.746 26.2849 23.8039 26.1623 23.9002 26.0737C23.9965 25.9852 24.1235 25.9377 24.2543 25.9413C24.3851 25.945 24.5092 25.9995 24.6004 26.0933C24.6916 26.1871 24.7426 26.3128 24.7426 26.4436C24.6164 30.9557 24.7957 35.0444 25.159 35.9538C25.7266 37.3725 26.5871 38.6135 29.0211 38.0924C31.3316 37.5967 32.1969 36.7206 32.582 34.487C32.8781 32.7725 33.4625 27.8956 33.5344 26.9331C33.5443 26.8003 33.6065 26.6769 33.7074 26.59C33.8082 26.5031 33.9395 26.4599 34.0723 26.4698C34.205 26.4797 34.3284 26.5419 34.4153 26.6428C34.5022 26.7436 34.5454 26.8749 34.5355 27.0077C34.4605 28.0092 33.8785 32.8772 33.5711 34.6577C33.116 37.2963 31.9398 38.4932 29.2312 39.0741C28.818 39.1653 28.3963 39.213 27.973 39.2163ZM13.9297 29.1987C13.7033 29.1987 13.4784 29.1617 13.2641 29.0889C11.5816 28.5276 9.97929 25.7877 8.50117 20.9448C7.37617 17.2581 6.66328 13.4104 6.60078 12.16C6.41523 8.45298 7.37031 5.82993 9.43867 4.36431C13.5309 1.4647 20.4152 4.22603 20.7062 4.34478C20.8284 4.39589 20.9254 4.49318 20.9761 4.61546C21.0268 4.73774 21.0272 4.87511 20.9771 4.99767C20.9271 5.12022 20.8306 5.21803 20.7087 5.2698C20.5869 5.32157 20.4495 5.32311 20.3266 5.27407V5.27447C20.2602 5.24712 13.6586 2.60259 10.0172 5.18501C8.24843 6.43931 7.43632 8.769 7.60312 12.1104C7.65586 13.1635 8.32187 16.9194 9.46132 20.6522C10.7809 24.9752 12.2828 27.7038 13.5816 28.1366C13.7852 28.2049 14.4055 28.4116 15.293 27.3452C16.9617 25.3374 18.4949 23.735 18.5102 23.719C18.6035 23.6285 18.7283 23.5778 18.8583 23.5774C18.9883 23.5771 19.1134 23.6271 19.2072 23.717C19.3011 23.8069 19.3565 23.9297 19.3617 24.0596C19.3669 24.1895 19.3215 24.3164 19.2352 24.4135C19.2199 24.4292 17.7102 26.0077 16.0648 27.987C15.2855 28.9237 14.5383 29.1987 13.9297 29.1987ZM35.7734 24.9686C35.6823 24.9687 35.5928 24.944 35.5146 24.8971C35.4365 24.8502 35.3726 24.7829 35.3298 24.7024C35.287 24.6219 35.267 24.5313 35.2719 24.4403C35.2767 24.3492 35.3063 24.2613 35.3574 24.1858C40.0336 17.2467 41.675 8.86275 40.2691 7.06665C38.4996 4.80571 36.0008 3.62447 32.8426 3.55689C30.5039 3.50611 28.6449 4.10337 28.3414 4.20767L28.2652 4.23853C27.9598 4.33462 27.7254 4.16704 27.6371 3.97134C27.5868 3.85921 27.5792 3.73257 27.6158 3.61523C27.6523 3.4979 27.7305 3.39796 27.8355 3.33423L27.9707 3.27876L27.9641 3.28072L27.9711 3.27837C28.4871 3.0897 30.3742 2.52329 32.7121 2.55025C36.207 2.58697 39.0937 3.93501 41.0602 6.44751C41.9906 7.63657 41.9926 10.376 41.066 13.9631C40.1215 17.6202 38.3441 21.551 36.1902 24.7471C36.1444 24.8155 36.0823 24.8715 36.0096 24.9101C35.9369 24.9488 35.8558 24.9689 35.7734 24.9686ZM36.0121 28.1807C35.2137 28.1807 34.498 28.0686 34.0695 27.8116C33.6289 27.5479 33.5449 27.1889 33.534 26.9987C33.4137 24.8877 34.5785 24.5202 35.1727 24.3526C35.0898 24.2276 34.9719 24.0803 34.8504 23.9284C34.5039 23.4956 34.0297 22.9026 33.6641 22.0159C33.607 21.8776 33.4273 21.5553 33.2195 21.1827C32.0934 19.1635 29.7504 14.9616 31.2555 12.8096C31.9523 11.8139 33.3391 11.4221 35.3828 11.6409C34.7816 9.80923 31.9184 4.07915 25.1254 3.96782C23.082 3.93345 21.4062 4.56196 20.1473 5.83306C17.3281 8.68032 17.4305 13.8319 17.4316 13.8831C17.4334 13.9489 17.4221 14.0145 17.3985 14.0761C17.3748 14.1376 17.3393 14.1939 17.2939 14.2417C17.2486 14.2895 17.1942 14.3279 17.134 14.3547C17.0738 14.3815 17.0089 14.3962 16.943 14.3979C16.8771 14.3996 16.8115 14.3883 16.75 14.3647C16.6884 14.3411 16.6321 14.3056 16.5843 14.2602C16.5365 14.2148 16.4981 14.1605 16.4713 14.1002C16.4445 14.04 16.4298 13.9751 16.4281 13.9092C16.4219 13.6807 16.3164 8.27486 19.434 5.12642C20.893 3.65298 22.8133 2.92564 25.1418 2.96353C29.4887 3.03501 32.2859 5.24439 33.8676 7.08579C35.591 9.09204 36.4363 11.3053 36.5059 12.0436C36.5578 12.5928 36.1637 12.703 36.084 12.719L35.9031 12.7233C33.8973 12.4022 32.6105 12.6249 32.0785 13.3854C30.9336 15.0213 33.15 18.9959 34.0965 20.6936C34.3383 21.1264 34.5125 21.4393 34.5922 21.6327C34.9031 22.3866 35.3086 22.8932 35.6344 23.3002C35.9207 23.6584 36.1691 23.9686 36.2582 24.3334C36.2992 24.4057 36.8844 25.2706 40.3551 24.5542C41.225 24.3749 41.7465 24.5284 41.9059 25.0104C42.2195 25.9592 40.4598 27.0655 39.4855 27.5182C38.6113 27.9241 37.218 28.1807 36.0121 28.1807ZM34.5352 26.9159C34.6449 27.0272 35.1957 27.2186 36.3367 27.1698C37.3508 27.126 38.4207 26.9053 39.0629 26.6077C39.884 26.2264 40.4316 25.8002 40.7156 25.5092L40.5578 25.5381C38.3387 25.9963 36.7691 25.9354 35.893 25.3565C35.8341 25.3175 35.7774 25.2754 35.723 25.2303C35.6281 25.2678 35.5402 25.2924 35.4777 25.31C34.9805 25.4495 34.4664 25.5936 34.5352 26.9159ZM20.2004 29.7202C19.6492 29.7202 19.0691 29.6456 18.4766 29.4967C17.8629 29.3432 16.8277 28.8811 16.8437 28.1221C16.8613 27.2702 18.1 27.0147 18.5668 26.9186C20.2512 26.5717 20.3609 26.4327 20.8875 25.7643C21.041 25.5694 21.232 25.3268 21.4922 25.0358C21.8789 24.6034 22.3016 24.3838 22.7484 24.3838C23.0594 24.3838 23.3148 24.4897 23.4832 24.5592C24.0207 24.7819 24.4691 25.3202 24.6535 25.9647C24.8199 26.5459 24.7406 27.1053 24.4301 27.5397C23.4113 28.9667 21.9488 29.7202 20.2004 29.7202ZM17.9281 28.1655C18.0797 28.2823 18.3828 28.4385 18.7199 28.5233C19.2332 28.6514 19.7309 28.7167 20.2004 28.7167C21.6309 28.7167 22.7789 28.1241 23.6133 26.9565C23.7871 26.7127 23.7352 26.4038 23.6887 26.2409C23.591 25.9002 23.3488 25.5905 23.0992 25.4866C22.9637 25.4303 22.8516 25.3874 22.7484 25.3874C22.693 25.3874 22.5246 25.3874 22.2406 25.7049C22.0008 25.9729 21.8285 26.1917 21.6758 26.385C21.0203 27.2174 20.7199 27.4999 18.7691 27.9018C18.2934 28.0002 18.0492 28.0995 17.9281 28.1655ZM21.7883 25.8499C21.6684 25.8497 21.5526 25.8067 21.4617 25.7286C21.3708 25.6505 21.3108 25.5425 21.2926 25.4241C21.2797 25.3407 21.2714 25.2568 21.2676 25.1725C19.9887 25.1483 18.7551 24.5999 17.8187 23.6225C16.6348 22.387 16.0957 20.6752 16.3402 18.9264C16.6059 17.0272 16.5066 15.3506 16.4531 14.4499C16.4398 14.2646 16.4316 14.079 16.4285 13.8932C16.4293 13.7346 16.4324 13.3131 17.8406 12.5995C18.3414 12.3456 19.3457 11.9026 20.4426 11.7889C22.2605 11.6014 23.4586 12.4108 23.8172 14.0686C24.7852 18.5452 23.8937 20.5252 23.243 21.9709C23.1215 22.2397 23.007 22.4944 22.9156 22.7405L22.8348 22.9581C22.491 23.8799 22.1937 24.6764 22.2852 25.2717C22.3052 25.4033 22.2723 25.5375 22.1936 25.6449C22.1149 25.7522 21.9968 25.824 21.8652 25.8444L21.7883 25.8499ZM17.4355 14.0319L17.4555 14.3905C17.5109 15.326 17.6141 17.0674 17.3344 19.0659C17.1328 20.5081 17.5734 21.9163 18.5434 22.9284C19.3098 23.7284 20.3191 24.1698 21.3562 24.1698H21.3777C21.4941 23.6803 21.6867 23.1639 21.8941 22.6073L21.9746 22.3913C22.0781 22.1131 22.1992 21.844 22.3273 21.5592C22.9539 20.167 23.7336 18.4342 22.8355 14.2807C22.6574 13.4584 22.2262 12.9823 21.5172 12.8252C20.0609 12.5034 17.891 13.5987 17.4355 14.0319ZM20.4652 13.819C20.4402 13.9963 20.7906 14.4702 21.2469 14.5334C21.7027 14.5971 22.093 14.2268 22.1176 14.0495C22.1422 13.8721 21.7922 13.6764 21.3355 13.6127C20.8797 13.5491 20.4894 13.6413 20.4652 13.819ZM21.3519 14.7084L21.2238 14.6995C20.9406 14.66 20.6543 14.4815 20.4586 14.2217C20.3898 14.1307 20.2773 13.9534 20.2996 13.7956C20.3316 13.5639 20.6137 13.4256 21.0547 13.4256C21.1539 13.4256 21.2555 13.4328 21.3594 13.4471C21.6 13.4807 21.8238 13.5502 21.9891 13.6424C22.2754 13.8026 22.2965 13.9807 22.2836 14.0733C22.248 14.3284 21.841 14.7084 21.3519 14.7084ZM20.6316 13.8487C20.6461 13.9581 20.9168 14.3194 21.2699 14.3682L21.3516 14.3741C21.6773 14.3741 21.9211 14.1174 21.9496 14.0334C21.9195 13.9764 21.7102 13.8338 21.3125 13.7792C21.2269 13.7672 21.1407 13.7609 21.0543 13.7604C20.7996 13.76 20.6633 13.8174 20.6316 13.8487ZM34.3508 13.4569C34.3754 13.6346 34.0258 14.1084 33.5691 14.1717C33.1129 14.235 32.7227 13.8651 32.6977 13.6874C32.6734 13.51 33.0234 13.3143 33.4797 13.251C33.9359 13.187 34.3258 13.2799 34.3508 13.4569ZM33.4641 14.2624C33.0246 14.2624 32.6461 13.9206 32.6148 13.6991C32.5789 13.4331 33.0168 13.2307 33.4684 13.1682C33.5681 13.1542 33.6656 13.1471 33.7609 13.1471C34.1504 13.1471 34.4082 13.2616 34.434 13.4456C34.4508 13.5651 34.3594 13.7491 34.2016 13.9147C34.0977 14.0241 33.8789 14.2135 33.5812 14.2545L33.4641 14.2624ZM33.7605 13.3143C33.673 13.3143 33.5832 13.3207 33.491 13.3334C33.0371 13.3963 32.7672 13.5788 32.7801 13.6764C32.7953 13.7834 33.0848 14.0952 33.4637 14.0952L33.557 14.0885C33.8047 14.0538 33.9906 13.8924 34.0793 13.7991C34.2184 13.6526 34.2738 13.5151 34.2672 13.4678C34.259 13.4065 34.0918 13.3143 33.7605 13.3143ZM35.0082 23.6475C34.9173 23.6475 34.8281 23.6227 34.7501 23.5759C34.6722 23.5291 34.6084 23.462 34.5656 23.3818C34.5228 23.3016 34.5026 23.2113 34.5071 23.1205C34.5117 23.0297 34.5408 22.9418 34.5914 22.8663C35.6602 21.2698 35.4644 19.6413 35.2754 18.067C35.1945 17.3959 35.1113 16.7026 35.1332 16.0366C35.1551 15.3518 35.2418 14.787 35.3262 14.2401C35.4258 13.5928 35.5199 12.9807 35.4809 12.2549C35.478 12.1245 35.526 11.9981 35.6147 11.9024C35.7034 11.8067 35.8258 11.7493 35.9561 11.7423C36.0864 11.7353 36.2143 11.7792 36.3127 11.8648C36.4112 11.9505 36.4725 12.071 36.4836 12.201C36.5281 13.0307 36.4215 13.7229 36.3184 14.3928C36.2387 14.9096 36.1562 15.444 36.1363 16.0686C36.1172 16.6581 36.1926 17.2842 36.2723 17.9467C36.4738 19.6213 36.7016 21.5194 35.4258 23.4245C35.3289 23.569 35.1699 23.6475 35.0082 23.6475Z" fill="white"/>
<path d="M1.10742 40.3061C1.66823 40.2147 2.23571 40.1705 2.80391 40.174C3.67695 40.174 4.31719 40.3771 4.72344 40.7428C5.09922 41.0678 5.32266 41.5654 5.32266 42.1752C5.32266 42.7947 5.13945 43.2822 4.79414 43.6377C4.32695 44.1353 3.56523 44.3893 2.70195 44.3893C2.43789 44.3893 2.19414 44.3791 1.99141 44.3283V47.0709H1.10742V40.3061ZM1.99141 43.6068C2.18438 43.6576 2.42812 43.6779 2.72266 43.6779C3.78867 43.6779 4.43906 43.16 4.43906 42.2154C4.43906 41.3115 3.79922 40.8748 2.82422 40.8748C2.43828 40.8748 2.14375 40.9053 1.99141 40.9459V43.6068ZM10.675 44.5717C10.675 46.3896 9.41524 47.1822 8.22695 47.1822C6.89649 47.1822 5.8707 46.2072 5.8707 44.6529C5.8707 43.0076 6.94726 42.0428 8.3082 42.0428C9.72031 42.0424 10.675 43.0686 10.675 44.5717ZM6.775 44.6225C6.775 45.699 7.39453 46.5115 8.26797 46.5115C9.12109 46.5115 9.76055 45.7092 9.76055 44.6021C9.76055 43.7693 9.34453 42.7131 8.28789 42.7131C7.23125 42.7131 6.775 43.6881 6.775 44.6225ZM11.6801 46.1561C11.9441 46.3287 12.4113 46.5115 12.8582 46.5115C13.5082 46.5115 13.8129 46.1865 13.8129 45.7803C13.8129 45.3537 13.5594 45.1201 12.8988 44.8764C12.0152 44.5615 11.5988 44.074 11.5988 43.485C11.5988 42.6928 12.2387 42.0428 13.2949 42.0428C13.7926 42.0428 14.2297 42.185 14.5039 42.3475L14.2805 42.9975C13.9782 42.8112 13.63 42.7128 13.275 42.7131C12.7469 42.7131 12.4523 43.0178 12.4523 43.3834C12.4523 43.7896 12.7473 43.9725 13.3871 44.2162C14.2402 44.5412 14.677 44.9678 14.677 45.699C14.677 46.5623 14.0066 47.1717 12.8387 47.1717C12.3004 47.1717 11.8027 47.0396 11.4574 46.8365L11.6801 46.1561ZM16.9008 40.7424V42.1541H18.1801V42.8346H16.9008V45.4854C16.9008 46.0947 17.073 46.44 17.5711 46.44C17.7457 46.443 17.9199 46.4225 18.0891 46.3791L18.1297 47.0494C17.9574 47.1205 17.6828 47.1713 17.3379 47.1713C16.9215 47.1713 16.5859 47.0393 16.3727 46.7955C16.1191 46.5314 16.0273 46.0947 16.0273 45.5158V42.8346H15.2656V42.1541H16.0273V40.976L16.9008 40.7424ZM23.3602 42.1545C23.3395 42.51 23.3195 42.9061 23.3195 43.5053V46.3592C23.3195 47.4865 23.0961 48.1771 22.6187 48.6041C22.1414 49.051 21.4508 49.1932 20.8312 49.1932C20.2422 49.1932 19.5922 49.051 19.1957 48.7869L19.4191 48.1064C19.7441 48.3096 20.252 48.4924 20.8613 48.4924C21.7754 48.4924 22.4457 48.015 22.4457 46.776V46.2275H22.4254C22.1512 46.6846 21.623 47.0502 20.8613 47.0502C19.6426 47.0502 18.7691 46.0143 18.7691 44.6529C18.7691 42.9873 19.8559 42.0428 20.9832 42.0428C21.8367 42.0428 22.3039 42.4896 22.5172 42.8959H22.5375L22.5781 42.1545H23.3602ZM22.4359 44.0943C22.4359 43.942 22.4258 43.81 22.3852 43.6881C22.2227 43.1701 21.7859 42.7436 21.1359 42.7436C20.2824 42.7436 19.6734 43.4646 19.6734 44.6021C19.6734 45.567 20.1609 46.3693 21.1258 46.3693C21.6742 46.3693 22.1719 46.024 22.3648 45.4553C22.4156 45.3029 22.4363 45.1303 22.4363 44.9779L22.4359 44.0943ZM24.741 43.6881C24.741 43.1092 24.7309 42.6115 24.7004 42.1545H25.4828L25.5129 43.1193H25.5535C25.777 42.4592 26.3152 42.0428 26.9145 42.0428C27.016 42.0428 27.0867 42.0529 27.168 42.0732V42.9162C27.0681 42.8944 26.9659 42.8841 26.8637 42.8857C26.234 42.8857 25.7867 43.3631 25.6652 44.0334C25.6401 44.1708 25.6265 44.3101 25.6246 44.4498V47.0701H24.741V43.6881ZM28.4586 44.7748C28.4789 45.9834 29.2504 46.4811 30.1441 46.4811C30.7844 46.4811 31.1699 46.3693 31.5051 46.2271L31.6574 46.867C31.3426 47.0092 30.8043 47.1717 30.0223 47.1717C28.509 47.1717 27.6051 46.1764 27.6051 44.6936C27.6051 43.2107 28.4785 42.0424 29.9105 42.0424C31.5152 42.0424 31.9418 43.4541 31.9418 44.358C31.9418 44.5408 31.9215 44.683 31.9113 44.7744L28.4586 44.7748ZM31.0789 44.135C31.0887 43.5662 30.8449 42.6826 29.8398 42.6826C28.9359 42.6826 28.5398 43.5154 28.4684 44.135H31.0789Z" fill="black"/>
<path d="M32.9572 45.9938C33.4359 46.2816 33.983 46.4359 34.5416 46.4406C35.4455 46.4406 35.9736 45.9633 35.9736 45.2727C35.9736 44.6328 35.608 44.2672 34.6838 43.9117C33.5666 43.5156 32.876 42.9367 32.876 41.9719C32.876 40.9055 33.7596 40.1133 35.09 40.1133C35.7908 40.1133 36.2986 40.2758 36.6033 40.4484L36.3596 41.1695C35.9599 40.955 35.5132 40.8434 35.0596 40.8445C34.1252 40.8445 33.7697 41.4031 33.7697 41.8703C33.7697 42.5102 34.1857 42.825 35.1307 43.1906C36.2885 43.6379 36.8775 44.1961 36.8775 45.2016C36.8775 46.2578 36.0955 47.1719 34.4807 47.1719C33.8205 47.1719 33.0994 46.9789 32.7334 46.7352L32.9572 45.9938ZM43.733 48.0758C42.8501 47.844 41.9761 47.5798 41.1127 47.2836C40.9705 47.2328 40.8283 47.182 40.6963 47.182C39.0713 47.1211 37.6799 45.9227 37.6799 43.7187C37.6799 41.525 39.0205 40.1133 40.8689 40.1133C42.7275 40.1133 43.9365 41.5555 43.9365 43.5766C43.9365 45.3336 43.124 46.4609 41.9865 46.857V46.8977C42.667 47.0703 43.4084 47.2328 43.9873 47.3344L43.733 48.0758ZM43.0018 43.6172C43.0018 42.2461 42.2912 40.834 40.8385 40.834C39.3455 40.834 38.6143 42.2152 38.6244 43.6984C38.6143 45.1508 39.4166 46.4609 40.7979 46.4609C42.21 46.4609 43.0018 45.1813 43.0018 43.6172ZM45.0834 40.225H45.9674V46.3289H48.8924V47.0703H45.0834V40.225Z" fill="#336791"/>
</svg>
