<svg width="50" height="50" viewBox="0 0 50 50" fill="none" xmlns="http://www.w3.org/2000/svg">
<g clip-path="url(#clip0_244_642)">
<path d="M0 -0.000244141H50V49.9998H0V-0.000244141Z" fill="#512BD4"/>
<path d="M8.91133 31.9441C8.55781 31.9441 8.25736 31.8263 8.00996 31.5908C7.76257 31.3491 7.6388 31.0621 7.63867 30.7298C7.63867 30.3916 7.76237 30.1016 8.00977 29.8599C8.25729 29.6182 8.55781 29.4974 8.91133 29.4974C9.2707 29.4974 9.57415 29.6182 9.82168 29.8599C10.0751 30.1016 10.2018 30.3916 10.2018 30.7298C10.2018 31.062 10.0751 31.349 9.82168 31.5908C9.57428 31.8264 9.2709 31.9443 8.91152 31.9443M23.0445 31.7451H20.7467L14.6922 22.1931C14.5412 21.9555 14.4139 21.7037 14.3121 21.4412H14.259L14.2682 21.5007L14.2766 21.5691L14.2844 21.6458L14.2918 21.731L14.3014 21.8748L14.3096 22.0373L14.3164 22.2189L14.3219 22.4197L14.3258 22.6394L14.3277 22.7966L14.3297 23.2263V31.7447H12.2969V18.7498H14.7451L20.5961 28.0746L20.7406 28.3029L20.8338 28.4529L20.9135 28.5847L20.9799 28.6986L21.017 28.7646L21.0482 28.8224L21.0736 28.8722H21.1088L21.1021 28.8312L21.0897 28.7433L21.0779 28.647L21.0676 28.5421L21.0629 28.4865L21.0539 28.3689L21.0461 28.2429L21.0393 28.1082L21.0311 27.8906L21.0252 27.6539L21.0217 27.398L21.0205 27.1232V18.7498H23.0443L23.0445 31.7451ZM32.9439 31.7451H25.8291V18.7498H32.6611V20.5804H27.9326V24.2595H32.29V26.081H27.9326V29.9234H32.9439V31.7451ZM43.0557 20.5806H39.4139V31.7451H37.3104V20.5806H33.6775V18.7498H43.0553L43.0557 20.5806Z" fill="white"/>
</g>
<defs>
<clipPath id="clip0_244_642">
<rect width="50" height="50" fill="white" transform="translate(0 -0.000244141)"/>
</clipPath>
</defs>
</svg>
