<svg width="50" height="50" viewBox="0 0 50 50" fill="none" xmlns="http://www.w3.org/2000/svg">
<g clip-path="url(#clip0_244_643)">
<rect y="-0.000244141" width="50" height="50" fill="#242938"/>
<path d="M28.6578 3.51538C28.3539 3.51538 28.0717 3.58218 27.8111 3.67144C28.3648 4.05015 28.6688 4.55151 28.8207 5.11968C28.8316 5.19761 28.8533 5.25327 28.8641 5.3312C28.875 5.39819 28.8859 5.46499 28.8859 5.53179C28.9293 6.51226 28.6361 6.63472 28.4299 7.21401C28.115 7.9605 28.202 8.76245 28.5818 9.40874C28.6145 9.48667 28.6578 9.57573 28.7121 9.65386C28.2996 6.8353 30.5902 6.41187 31.0137 5.53179C31.0461 4.76304 30.4273 4.25054 29.9389 3.89409C29.4721 3.60444 29.0486 3.51538 28.6578 3.51538ZM32.1102 4.15034C32.0666 4.40659 32.0992 4.3398 32.0885 4.47339C32.0775 4.56265 32.0775 4.67397 32.0666 4.76304C32.0462 4.85355 32.0208 4.94288 31.9906 5.03062C31.9689 5.11968 31.9363 5.20874 31.9039 5.2978C31.8604 5.38706 31.8279 5.46499 31.7844 5.55405C31.752 5.59858 31.7301 5.64312 31.6977 5.68784L31.6324 5.78804C31.5781 5.86616 31.5238 5.94409 31.4695 6.01069C31.4045 6.07769 31.3502 6.15562 31.2742 6.21128V6.22261C31.209 6.27827 31.1439 6.34507 31.068 6.40073C30.84 6.57905 30.5795 6.71265 30.3406 6.87983C30.2646 6.9355 30.1887 6.98003 30.1234 7.04683C30.0475 7.10269 29.9824 7.15815 29.9172 7.22515C29.8412 7.29194 29.7869 7.35874 29.7219 7.43687C29.6676 7.50366 29.6023 7.58159 29.559 7.65952C29.5047 7.73765 29.4504 7.81577 29.407 7.89351C29.3635 7.98276 29.3311 8.06069 29.2875 8.14976C29.2551 8.23901 29.2225 8.31694 29.2008 8.40601C29.1682 8.5064 29.1465 8.59546 29.1248 8.68452C29.1139 8.72905 29.1139 8.78491 29.1029 8.82944C29.0922 8.87397 29.0922 8.91851 29.0813 8.96304C29.0813 9.0521 29.0705 9.15249 29.0705 9.24155C29.0705 9.30835 29.0705 9.37534 29.0813 9.44214C29.0813 9.5312 29.0922 9.62026 29.1139 9.72065C29.1248 9.80972 29.1465 9.89878 29.1682 9.98804C29.2008 10.0771 29.2225 10.1662 29.2551 10.2554C29.2768 10.3111 29.3094 10.3667 29.3311 10.4113L26.8342 9.41987C26.4172 9.29812 25.9973 9.1867 25.5748 9.08569L24.8908 8.91851C24.2377 8.78493 23.5783 8.68454 22.915 8.61772C22.8934 8.61772 22.8826 8.60659 22.8607 8.60659C22.2152 8.53987 21.5666 8.50636 20.9176 8.5062C20.4398 8.5062 19.9623 8.52847 19.4955 8.56206C18.8334 8.60659 18.1711 8.69565 17.5088 8.80718C17.3459 8.82944 17.1832 8.86284 17.0203 8.89624C16.6838 8.96304 16.3582 9.04097 16.0432 9.1189L15.5549 9.25269C15.3918 9.31948 15.2398 9.39761 15.0881 9.4644L14.7297 9.6314C14.708 9.64253 14.6863 9.64253 14.6754 9.65366C14.5668 9.70952 14.4691 9.75405 14.3715 9.80972C14.3453 9.81903 14.3199 9.83019 14.2953 9.84312C14.1762 9.89878 14.0566 9.96558 13.959 10.0214C13.8828 10.0546 13.8068 10.0994 13.7418 10.1328C13.7092 10.155 13.6656 10.1773 13.6441 10.1884C13.5465 10.2443 13.4488 10.2998 13.3617 10.3556C13.2641 10.4112 13.1772 10.4669 13.1012 10.5226C13.0252 10.5785 12.9492 10.623 12.8842 10.6787C12.8732 10.6898 12.8625 10.6898 12.8516 10.7009C12.7865 10.7455 12.7105 10.8011 12.6453 10.857L12.6236 10.8792L12.4607 11.0128C12.4393 11.024 12.4174 11.0462 12.3957 11.0574C12.3414 11.1019 12.2871 11.1578 12.2328 11.2023C12.2219 11.2246 12.2002 11.2355 12.1895 11.2468C12.1242 11.3136 12.0592 11.3693 11.9941 11.4363C11.983 11.4363 11.983 11.4474 11.9723 11.4585C11.907 11.5142 11.842 11.581 11.777 11.648C11.766 11.6589 11.766 11.6701 11.7551 11.6701C11.7008 11.7257 11.6467 11.7814 11.5924 11.8484C11.5707 11.8707 11.5381 11.8929 11.5162 11.9152C11.4621 11.982 11.3971 12.049 11.3318 12.1158C11.3209 12.138 11.2992 12.1492 11.2883 12.1714C11.2016 12.2605 11.1254 12.3498 11.0387 12.4388L11.0061 12.4722C10.8322 12.6617 10.6479 12.8511 10.4523 13.0181C10.257 13.1964 10.0508 13.3634 9.84453 13.5083C9.63421 13.6596 9.41685 13.8009 9.19316 13.9316C8.97175 14.056 8.74338 14.1675 8.50918 14.2658C8.27852 14.3666 8.04301 14.4559 7.80352 14.5334C7.34766 14.6335 6.88086 14.8228 6.4793 14.8562C6.39219 14.8562 6.29453 14.8785 6.20781 14.8898C6.11016 14.9121 6.02324 14.9343 5.93633 14.9566L5.67578 15.0568C5.58887 15.0902 5.50195 15.1349 5.41523 15.1794C5.33906 15.2351 5.25234 15.2796 5.17637 15.3353C5.09898 15.3924 5.0264 15.4558 4.95938 15.5248C4.8832 15.5804 4.80723 15.6583 4.74219 15.7251C4.67695 15.8033 4.61191 15.8701 4.55762 15.948C4.50332 16.0373 4.43828 16.1152 4.39473 16.2042C4.34043 16.2824 4.28613 16.3714 4.24277 16.4605C4.19941 16.5607 4.15586 16.65 4.12344 16.7501C4.09082 16.8392 4.0582 16.9396 4.02578 17.0398C4.00391 17.1289 3.98223 17.2181 3.97148 17.3072C3.97148 17.3183 3.96055 17.3294 3.96055 17.3406C3.93887 17.441 3.93887 17.5746 3.92793 17.6414C3.91699 17.7195 3.90625 17.7863 3.90625 17.8642C3.90625 17.9087 3.90625 17.9644 3.91719 18.0091C3.92793 18.0871 3.93867 18.1539 3.96055 18.2207C3.98223 18.2876 4.0041 18.3544 4.03672 18.4212V18.4324C4.06914 18.4992 4.1125 18.566 4.15586 18.633C4.19941 18.6998 4.24277 18.7666 4.29707 18.8333C4.35137 18.8892 4.4166 18.956 4.48164 19.0117C4.54506 19.077 4.61408 19.1367 4.68789 19.19C4.94844 19.4238 5.01367 19.5019 5.35 19.68C5.40449 19.7136 5.45859 19.7359 5.52383 19.7693C5.53477 19.7693 5.54551 19.7804 5.55645 19.7804C5.55645 19.8027 5.55645 19.8138 5.56719 19.8361C5.57813 19.9251 5.5998 20.0144 5.62148 20.1035C5.64316 20.2037 5.67578 20.2929 5.7084 20.3709C5.74102 20.4376 5.7627 20.5044 5.79531 20.5714C5.80606 20.5937 5.8168 20.616 5.82773 20.6271C5.87129 20.7162 5.91465 20.7941 5.95801 20.8722L6.1209 21.1062C6.1752 21.173 6.24043 21.2509 6.30547 21.3177C6.3707 21.3847 6.43574 21.4404 6.51172 21.5072C6.51172 21.5072 6.52266 21.5183 6.5334 21.5183C6.59863 21.574 6.66367 21.6298 6.72871 21.6744C6.80488 21.73 6.88086 21.7746 6.96777 21.8191C7.04761 21.8665 7.13107 21.9075 7.21738 21.9417C7.28242 21.9751 7.3584 21.9974 7.43457 22.0197C7.44531 22.0308 7.45605 22.0308 7.47793 22.0419C7.52129 22.0531 7.57559 22.0642 7.61914 22.0753C7.58652 22.6769 7.57559 23.2451 7.6625 23.4457C7.76016 23.6685 8.23789 22.9888 8.71563 22.2089C8.65039 22.9777 8.60703 23.88 8.71563 24.1474C8.83477 24.4259 9.48633 23.557 10.0508 22.599C17.7477 20.7718 24.7715 26.2308 25.5098 33.94C25.3686 32.7367 23.9248 32.0683 23.2625 32.2355C22.9369 33.0597 22.3832 34.1181 21.493 34.7753C21.5691 34.0402 21.5365 33.2826 21.3846 32.5474C21.1457 33.5722 20.6789 34.5304 20.0383 35.3546C19.007 35.4328 17.9758 34.9203 17.4328 34.1515C17.3895 34.1181 17.3787 34.0513 17.3461 34.0068C17.3135 33.9287 17.2809 33.8507 17.2592 33.7728C17.2274 33.698 17.2056 33.6193 17.1941 33.5388C17.1832 33.4609 17.1832 33.383 17.1832 33.2937V33.1267C17.1941 33.0486 17.2158 32.9707 17.2375 32.8927C17.259 32.8148 17.2809 32.7367 17.3135 32.6587C17.3568 32.5808 17.3895 32.5029 17.4438 32.4248C17.6283 31.89 17.6283 31.4556 17.2918 31.1994C17.2267 31.1558 17.1577 31.1185 17.0855 31.088C17.042 31.0767 16.9879 31.0544 16.9443 31.0433C16.9117 31.0322 16.89 31.021 16.8576 31.0099C16.7814 30.9876 16.7055 30.9654 16.6295 30.9542C16.5555 30.9322 16.4788 30.9209 16.4016 30.9208C16.3225 30.908 16.2427 30.9006 16.1627 30.8986C16.1084 30.8986 16.0541 30.9097 15.9998 30.9097C15.9131 30.9097 15.8371 30.9208 15.7611 30.9431C15.685 30.9542 15.609 30.9654 15.533 30.9876C15.457 31.0099 15.3811 31.0324 15.3051 31.0658C15.2291 31.0992 15.1641 31.1326 15.0881 31.166C15.0229 31.1994 14.9576 31.2439 14.8816 31.2773C12.3523 32.9707 13.8613 36.9367 15.5873 38.0841C14.9359 38.2068 14.2738 38.3515 14.0893 38.4964L14.0676 38.5187C14.5344 38.8083 15.0229 39.0535 15.5332 39.265C16.1146 39.4585 16.701 39.6369 17.2918 39.7998V39.8109C18.1906 40.0002 19.1108 40.0677 20.0275 40.0115C24.8367 39.6662 28.7773 35.9119 29.4939 30.9654C29.5156 31.0658 29.5373 31.1548 29.559 31.255C29.5916 31.4556 29.635 31.6673 29.6568 31.8789V31.8902C29.6785 31.9904 29.6893 32.0906 29.7002 32.1798V32.2244C29.7111 32.3246 29.7219 32.425 29.7219 32.514C29.7328 32.6365 29.7436 32.7591 29.7436 32.8816V33.0599C29.7436 33.1156 29.7545 33.1824 29.7545 33.238C29.7545 33.305 29.7436 33.3718 29.7436 33.4386V33.5947C29.7436 33.6726 29.7328 33.7394 29.7328 33.8175C29.7328 33.8621 29.7328 33.9066 29.7219 33.9623C29.7219 34.0402 29.7109 34.1183 29.7109 34.2074C29.7 34.2408 29.7 34.2742 29.7 34.3076C29.6893 34.3968 29.6783 34.4748 29.6676 34.5638C29.6676 34.5972 29.6676 34.6306 29.6566 34.6642C29.6457 34.7755 29.624 34.8757 29.6133 34.9873V35.0095C29.5916 35.1097 29.5697 35.2212 29.548 35.3214V35.3548L29.483 35.6556C29.483 35.6667 29.4721 35.689 29.4721 35.7001C29.4517 35.8017 29.4264 35.9021 29.3961 36.0011V36.0345C29.3635 36.1458 29.3309 36.246 29.3092 36.3464C29.2984 36.3576 29.2984 36.3687 29.2984 36.3687L29.2006 36.7029C29.1572 36.8142 29.1246 36.9146 29.0813 37.0259C29.0379 37.1373 29.0053 37.2488 28.9619 37.349C28.9184 37.4605 28.875 37.5607 28.8316 37.672H28.8207C28.7771 37.7724 28.7338 37.8837 28.6795 37.9839C28.6705 38.0107 28.6596 38.0368 28.6469 38.0621C28.6361 38.0732 28.6361 38.0843 28.6252 38.0955C27.9195 39.5548 26.8775 40.8359 25.5748 41.8386C25.4879 41.8943 25.401 41.9611 25.3143 42.0281C25.2926 42.0501 25.26 42.0615 25.2383 42.0837C25.1621 42.1394 25.0861 42.1951 24.9994 42.2507L25.0318 42.3177H25.0428L25.4988 42.2507H25.5096C25.7918 42.2062 26.0742 42.1505 26.3564 42.0949C26.4372 42.0816 26.517 42.063 26.5953 42.0392C26.6494 42.0279 26.693 42.0169 26.7473 42.0056C26.8232 41.9945 26.8992 41.9722 26.9752 41.9611C27.0402 41.9388 27.1055 41.9277 27.1705 41.9054C28.2563 41.638 29.3092 41.2705 30.3188 40.8359C28.5928 43.2535 26.2805 45.2031 23.5773 46.4841C24.8258 46.3951 26.0742 46.1833 27.2791 45.8269C31.6541 44.5011 35.3344 41.482 37.5381 37.4158C37.093 39.9892 36.0941 42.4402 34.6178 44.5791C35.6727 43.8647 36.6448 43.0352 37.5164 42.106C39.948 39.4992 41.5439 36.1904 42.0867 32.6367C42.4573 34.401 42.5634 36.2106 42.4016 38.0062C50.2397 26.7878 43.0529 15.1572 40.0459 12.0937C40.035 12.0714 40.0242 12.0601 40.0242 12.0378C40.0133 12.0492 40.0133 12.0492 40.0133 12.0601C40.0133 12.049 40.0133 12.049 40.0023 12.0378C40.0023 12.1716 39.9914 12.3054 39.9807 12.439C39.9506 12.6886 39.9144 12.9375 39.8721 13.1853C39.8178 13.4304 39.7527 13.6755 39.6875 13.9207C39.6103 14.1617 39.5234 14.3995 39.427 14.6335C39.3272 14.8642 39.2186 15.0909 39.1014 15.3132C38.9818 15.525 38.8516 15.7476 38.7105 15.9482C38.571 16.1551 38.4225 16.3558 38.2654 16.5498C38.1025 16.7503 37.9289 16.9287 37.7553 17.1068C37.6467 17.2072 37.5488 17.2962 37.4404 17.3853C37.3535 17.4634 37.2775 17.5302 37.1906 17.608C36.9953 17.7642 36.7998 17.9087 36.5828 18.0425C36.3766 18.1763 36.1594 18.3101 35.9422 18.4214C35.7164 18.53 35.4884 18.634 35.2584 18.7333C35.0271 18.8228 34.7916 18.9009 34.5527 18.9673C34.3128 19.0335 34.0701 19.0892 33.8254 19.1343C33.5756 19.1791 33.326 19.2013 33.0871 19.2236C32.9135 19.2347 32.7397 19.2458 32.566 19.2458C32.3164 19.2458 32.0666 19.2236 31.8277 19.2011C31.5781 19.1789 31.3285 19.1455 31.0897 19.0898C30.8398 19.0453 30.6012 18.9785 30.3623 18.9003H30.3514C30.5902 18.8781 30.8291 18.8558 31.068 18.8113C31.313 18.7675 31.5557 18.7117 31.7953 18.6441C32.0341 18.5776 32.2696 18.4995 32.5008 18.4101C32.7397 18.321 32.9676 18.2097 33.1848 18.0982C33.4127 17.9869 33.6189 17.8644 33.8361 17.7306C34.0424 17.5859 34.2486 17.441 34.4441 17.2851C34.6395 17.1291 34.824 16.962 34.9977 16.7837C35.1822 16.6166 35.3451 16.4273 35.508 16.2378C35.6668 16.0426 35.8189 15.842 35.9639 15.6363C35.9855 15.6029 36.0074 15.5582 36.0291 15.525C36.138 15.349 36.243 15.1706 36.3439 14.99C36.4633 14.7689 36.572 14.5421 36.6695 14.3105C36.7676 14.0771 36.8545 13.8392 36.9301 13.5976C37.0061 13.3636 37.0604 13.1185 37.1146 12.8734C37.1582 12.6171 37.2016 12.372 37.2232 12.1271C37.2449 11.8708 37.2666 11.6146 37.2666 11.3693C37.2666 11.1912 37.2559 11.013 37.2449 10.8347C37.2232 10.5785 37.1906 10.3333 37.1582 10.0882C37.1153 9.83713 37.0609 9.58811 36.9953 9.34194C36.9193 9.10796 36.8434 8.86284 36.7564 8.62905C36.6695 8.39487 36.5611 8.16108 36.4525 7.93823C36.333 7.71558 36.2137 7.49253 36.0834 7.28101C35.9449 7.07234 35.8002 6.86795 35.6492 6.66811C35.4863 6.47866 35.3234 6.2894 35.1498 6.09995C35.0629 6.01089 34.9652 5.9105 34.8676 5.82163C34.3817 5.4346 33.8782 5.07027 33.3586 4.72983C33.2886 4.68823 33.2161 4.65105 33.1414 4.61851C32.7832 4.38433 32.4467 4.26187 32.1102 4.15054" fill="#E0234E"/>
</g>
<defs>
<clipPath id="clip0_244_643">
<rect width="50" height="50" fill="white" transform="translate(0 -0.000244141)"/>
</clipPath>
</defs>
</svg>
