<svg width="50" height="51" viewBox="0 0 50 51" fill="none" xmlns="http://www.w3.org/2000/svg">
<g clip-path="url(#clip0_286_410)">
<path d="M7.34922 44.6166L3.42188 0.56543H46.5781L42.6469 44.61L24.9738 49.5096L7.34922 44.6166Z" fill="#1572B6"/>
<path d="M25 45.7646L39.2809 41.8053L42.6406 4.16699H25V45.7646Z" fill="#33A9DC"/>
<path d="M25 20.1266H32.1492L32.643 14.5941H25V9.19141H38.5477L38.418 10.641L37.0898 25.5293H25V20.1266Z" fill="white"/>
<path d="M25.0326 34.158L25.0088 34.165L18.992 32.5404L18.6072 28.2314H13.1846L13.9412 36.7146L25.008 39.7861L25.0326 39.7791V34.158Z" fill="#EBEBEB"/>
<path d="M31.6902 25.3008L31.0395 32.5359L25.0137 34.1625V39.7836L36.0895 36.7141L36.1707 35.8012L37.1105 25.3008H31.6902Z" fill="white"/>
<path d="M25.0189 9.19141V14.5941H11.9689L11.8607 13.3801L11.6146 10.641L11.4854 9.19141H25.0189ZM25.0006 20.1273V25.5301H19.0596L18.9514 24.316L18.7049 21.577L18.576 20.1273H25.0006Z" fill="#EBEBEB"/>
</g>
<defs>
<clipPath id="clip0_286_410">
<rect width="50" height="50" fill="white" transform="translate(0 0.0371094)"/>
</clipPath>
</defs>
</svg>
