<svg width="50" height="51" viewBox="0 0 50 51" fill="none" xmlns="http://www.w3.org/2000/svg">
<path d="M3.125 10.1621C3.125 6.29612 6.25901 3.16211 10.125 3.16211H39.875C43.741 3.16211 46.875 6.29612 46.875 10.1621V39.9121C46.875 43.7781 43.741 46.9121 39.875 46.9121H10.125C6.25901 46.9121 3.125 43.7781 3.125 39.9121V10.1621Z" fill="#F5DE19"/>
<path d="M32.5139 37.3418C32.8872 38.0985 33.4665 38.7345 34.1851 39.1768C34.9038 39.619 35.7326 39.8495 36.5764 39.8418C38.2795 39.8418 39.3686 38.9902 39.3686 37.8105C39.3686 36.4043 38.2498 35.9012 36.3748 35.0808L35.3467 34.6402C32.3779 33.3762 30.4092 31.7933 30.4092 28.4465C30.4092 25.3637 32.7529 23.0152 36.4295 23.0152C37.6196 22.9295 38.8087 23.1959 39.8484 23.7814C40.8881 24.3668 41.7325 25.2453 42.2764 26.3074L39.0623 28.3621C38.8528 27.8355 38.4882 27.3851 38.0169 27.0703C37.5457 26.7556 36.9899 26.5914 36.4232 26.5996C36.176 26.5748 35.9263 26.6019 35.6901 26.679C35.4538 26.756 35.2363 26.8815 35.0512 27.0473C34.8661 27.2131 34.7176 27.4156 34.6152 27.642C34.5127 27.8684 34.4585 28.1136 34.4561 28.3621C34.4561 29.5949 35.2201 30.0949 36.9842 30.8621L38.0123 31.3027C41.5061 32.8012 43.4811 34.3277 43.4811 37.7605C43.4811 41.4621 40.5732 43.4902 36.6686 43.4902C35.1473 43.5862 33.6308 43.2403 32.3015 42.4943C30.9722 41.7484 29.887 40.634 29.1764 39.2855L32.5139 37.3418ZM17.9904 37.698C18.6357 38.8434 19.2232 39.8121 20.6357 39.8121C21.9857 39.8121 22.8389 39.284 22.8389 37.2293V23.2496H26.9498V37.284C26.9498 41.5402 24.4498 43.4777 20.8107 43.4777C19.5244 43.548 18.2469 43.2275 17.1462 42.5582C16.0455 41.8889 15.173 40.9021 14.6436 39.7277L17.9904 37.698Z" fill="black"/>
</svg>
