<svg width="50" height="51" viewBox="0 0 50 51" fill="none" xmlns="http://www.w3.org/2000/svg">
<g clip-path="url(#clip0_228_575)">
<path d="M38.2812 0.0371094H11.7188C5.24666 0.0371094 0 5.28377 0 11.7559V38.3184C0 44.7904 5.24666 50.0371 11.7188 50.0371H38.2812C44.7533 50.0371 50 44.7904 50 38.3184V11.7559C50 5.28377 44.7533 0.0371094 38.2812 0.0371094Z" fill="#F4F2ED"/>
<path d="M25.0002 28.7387C27.0127 28.7387 28.6439 27.1072 28.6439 25.0949C28.6439 23.0826 27.0127 21.4512 25.0002 21.4512C22.9877 21.4512 21.3564 23.0826 21.3564 25.0949C21.3564 27.1072 22.9879 28.7387 25.0002 28.7387Z" fill="#00D8FF"/>
<path d="M25.0004 17.686C29.8926 17.686 34.4373 18.388 37.8641 19.5679C41.9928 20.9892 44.5312 23.1437 44.5312 25.0946C44.5312 27.1276 41.841 29.4165 37.4072 30.8854C34.0553 31.996 29.6443 32.5757 25.0004 32.5757C20.2391 32.5757 15.7303 32.0315 12.3404 30.8731C8.05176 29.4073 5.46875 27.089 5.46875 25.0946C5.46875 23.1595 7.89258 21.0216 11.9633 19.6024C15.4027 18.4032 20.0596 17.686 24.9996 17.686H25.0004Z" stroke="#00D8FF" stroke-width="0.556938"/>
<path d="M18.5511 21.4117C20.9953 17.1738 23.8736 13.5875 26.6076 11.2086C29.9013 8.34199 33.0361 7.21933 34.7259 8.19375C36.4871 9.20937 37.1259 12.6836 36.1836 17.2582C35.4716 20.7166 33.7697 24.8271 31.4496 28.8502C29.0709 32.9748 26.3472 36.6088 23.6506 38.9658C20.2382 41.9486 16.9392 43.0281 15.2117 42.0318C13.5353 41.0658 12.8943 37.8976 13.6986 33.6623C14.3781 30.0836 16.0834 25.6912 18.5504 21.4117H18.5511Z" stroke="#00D8FF" stroke-width="0.556938"/>
<path d="M18.5568 28.8609C16.1058 24.6277 14.4371 20.3422 13.7406 16.7855C12.9021 12.5002 13.4949 9.22382 15.1834 8.24647C16.9429 7.22772 20.2716 8.40936 23.7642 11.5105C26.4048 13.8551 29.1164 17.3818 31.4431 21.401C33.8287 25.5217 35.6166 29.6965 36.3121 33.2098C37.1922 37.6558 36.4798 41.0529 34.7539 42.0519C33.0793 43.0215 30.0146 41.9951 26.7468 39.183C23.9859 36.8072 21.032 33.1363 18.5568 28.8609Z" stroke="#00D8FF" stroke-width="0.556938"/>
</g>
<defs>
<clipPath id="clip0_228_575">
<rect width="50" height="50" fill="white" transform="translate(0 0.0371094)"/>
</clipPath>
</defs>
</svg>
