<svg width="50" height="51" viewBox="0 0 50 51" fill="none" xmlns="http://www.w3.org/2000/svg">
<g clip-path="url(#clip0_228_574)">
<path d="M38.2812 0.0371094H11.7188C5.24666 0.0371094 0 5.28377 0 11.7559V38.3184C0 44.7904 5.24666 50.0371 11.7188 50.0371H38.2812C44.7533 50.0371 50 44.7904 50 38.3184V11.7559C50 5.28377 44.7533 0.0371094 38.2812 0.0371094Z" fill="#F4F2ED"/>
<path fill-rule="evenodd" clip-rule="evenodd" d="M16.2109 21.5215C17.3828 16.834 20.3125 14.4902 25 14.4902C32.0312 14.4902 32.9102 19.7637 36.4258 20.6426C38.7695 21.2288 40.8203 20.3499 42.5781 18.0059C41.4062 22.6934 38.4766 25.0371 33.7891 25.0371C26.7578 25.0371 25.8789 19.7637 22.3633 18.8848C20.0195 18.2988 17.9688 19.1777 16.2109 21.5215ZM7.42188 32.0684C8.59375 27.3809 11.5234 25.0371 16.2109 25.0371C23.2422 25.0371 24.1211 30.3105 27.6367 31.1895C29.9805 31.7757 32.0312 30.8967 33.7891 28.5527C32.6172 33.2402 29.6875 35.584 25 35.584C17.9688 35.584 17.0898 30.3105 13.5742 29.4316C11.2305 28.8454 9.17969 29.7243 7.42188 32.0684Z" fill="url(#paint0_linear_228_574)"/>
</g>
<defs>
<linearGradient id="paint0_linear_228_574" x1="16.8945" y1="14.4902" x2="31.9336" y2="36.2676" gradientUnits="userSpaceOnUse">
<stop stop-color="#32B1C1"/>
<stop offset="1" stop-color="#14C6B7"/>
</linearGradient>
<clipPath id="clip0_228_574">
<rect width="50" height="50" fill="white" transform="translate(0 0.0371094)"/>
</clipPath>
</defs>
</svg>
