<svg width="40" height="40" viewBox="0 0 40 40" fill="none" xmlns="http://www.w3.org/2000/svg">
<rect width="40" height="40" rx="6" fill="white"/>
<path d="M6.01591 34.7763C5.36778 34.7763 4.7093 34.4849 4.29598 33.9133V36.9999H3V29.381H4.1722L4.21842 30.2165C4.62058 29.5721 5.33511 29.2319 6.01617 29.2327C7.32225 29.2327 8.28567 30.4238 8.28567 32.0042C8.28567 33.5847 7.32172 34.7774 6.01564 34.7766L6.01591 34.7763ZM5.61455 30.2798C4.85778 30.2798 4.2402 30.9239 4.2402 32.0057C4.2402 33.0874 4.85406 33.7315 5.61375 33.7315C6.37344 33.7315 6.98597 33.0874 6.98597 32.0057C6.98597 30.9239 6.37317 30.2798 5.61428 30.2798H5.61455ZM13.1695 34.6317L13.1246 33.7934C12.7229 34.4375 12.0079 34.7777 11.3273 34.7777C10.0205 34.7777 9.05838 33.5864 9.05838 32.0062C9.05838 30.4267 10.0186 29.2351 11.3273 29.2359C12.0076 29.2359 12.7229 29.5788 13.1246 30.22L13.1697 29.3819H14.3422V34.6323L13.1695 34.6317ZM11.7295 30.2801C10.973 30.2801 10.356 30.9242 10.356 32.006C10.356 33.0877 10.9695 33.7318 11.7292 33.7318C12.4889 33.7318 13.1025 33.0877 13.1025 32.0068C13.1025 30.9256 12.4889 30.2844 11.7292 30.2804L11.7295 30.2801ZM18.8743 34.6329V31.7252C18.8743 30.7045 18.5502 30.3639 17.9587 30.3639C17.3448 30.3639 16.6746 30.971 16.6738 31.7004V34.6294H15.3792V29.3819H16.5663L16.6215 30.3547C16.9456 29.686 17.6715 29.2365 18.4084 29.2365C19.6921 29.2365 20.1732 30.2093 20.1732 31.5099V34.6329H18.8743ZM24.9188 34.6335L24.8737 33.7948C24.4723 34.4389 23.7578 34.7789 23.0762 34.7789C21.7699 34.7789 20.8072 33.5878 20.8072 32.008C20.8072 30.4281 21.7677 29.2374 23.0762 29.2374C23.7235 29.2374 24.3828 29.5293 24.7959 30.1006V27.3418H26.091V34.6338L24.9188 34.6335ZM23.4792 30.2847C22.7195 30.2847 22.1051 30.9288 22.1051 32.0106C22.1051 33.0923 22.7187 33.7356 23.4784 33.7364C24.238 33.7364 24.8516 33.0923 24.8516 32.0106C24.8516 30.9288 24.238 30.2847 23.4792 30.2847ZM30.9584 34.6343L30.914 33.796C30.5118 34.4401 29.7968 34.7806 29.1162 34.7797C27.8096 34.7797 26.8473 33.5887 26.8473 32.0091C26.8473 30.4293 27.8078 29.2379 29.1162 29.2385C29.7968 29.2385 30.5118 29.5817 30.914 30.2229L30.9589 29.3845H32.1343V34.6343H30.9584ZM29.5184 30.2847C28.759 30.2847 28.1451 30.9288 28.1451 32.0106C28.1451 33.0923 28.759 33.7364 29.5184 33.7364C30.2778 33.7364 30.8917 33.0923 30.8917 32.0106C30.8917 30.9288 30.2781 30.2847 29.5184 30.2847ZM35.0014 34.8052C34.3199 34.7993 33.6524 34.5936 33.0693 34.2097L33.2812 33.2343C33.6723 33.4895 34.2641 33.8182 34.9786 33.8182C35.492 33.8182 35.8498 33.648 35.8498 33.21C35.8498 32.8339 35.4814 32.6998 34.8221 32.5298C33.6393 32.2499 33.2146 31.5697 33.2151 30.8282C33.2151 30.0049 33.8069 29.2244 35.1135 29.2244C35.9064 29.2244 36.5984 29.6016 36.7522 29.6985L36.5423 30.6279C36.1205 30.3511 35.6392 30.2 35.1467 30.1899C34.6219 30.1899 34.3647 30.3842 34.3647 30.7001C34.3647 31.0523 34.7 31.2107 35.2137 31.3442C36.486 31.6362 37 32.28 37 32.9854C37 34.1128 36.2403 34.8052 35.0014 34.8052ZM16.9288 4.35303H19.2294V9.55313H16.9288V4.35303ZM16.9288 15.0342H19.2294V20.234H16.9288V15.0342Z" fill="#130754"/>
<path d="M16.9287 11.0718H19.2296V13.525H16.9287V11.0718Z" fill="#FFCA00"/>
<path d="M13.2324 8.62842H15.5333V25.9129H13.2324V8.62842ZM20.5488 19.3241H22.8499V24.5239H20.5488V19.3241ZM20.5488 8.63478H22.8499V13.8346H20.5488V8.63478Z" fill="#130754"/>
<path d="M20.5479 15.353H22.849V17.8059H20.5479V15.353Z" fill="#E70488"/>
<path d="M24.167 3H26.4681V20.2839H24.167V3Z" fill="#130754"/>
</svg>
