<svg width="51" height="51" viewBox="0 0 51 51" fill="none" xmlns="http://www.w3.org/2000/svg">
<path d="M25.2569 4.8802C23.5747 4.88817 21.969 5.03121 20.5554 5.28143C16.3917 6.01694 15.6363 7.5565 15.6363 10.3962V14.1459H25.4749V15.3958H11.9436C9.08437 15.3958 6.58058 17.1142 5.79726 20.3846C4.8936 24.1319 4.85376 26.4707 5.79726 30.3838C6.49651 33.2968 8.16676 35.3718 11.0263 35.3718H14.4095V30.8767C14.4095 27.629 17.2189 24.7646 20.5558 24.7646H30.3832C33.1189 24.7646 35.3024 22.5119 35.3024 19.765V10.3966C35.3024 7.72982 33.0528 5.72688 30.3832 5.28182C28.6923 5.00053 26.9387 4.87263 25.2569 4.8802ZM19.9362 7.89597C20.9522 7.89597 21.7826 8.73947 21.7826 9.777C21.7826 10.8101 20.9526 11.6457 19.9362 11.6457C18.9162 11.6457 18.0902 10.8101 18.0902 9.777C18.0898 8.73947 18.9162 7.89597 19.9362 7.89597Z" fill="url(#paint0_linear_422_964)"/>
<path d="M36.5296 15.3954V19.7647C36.5296 23.1514 33.6576 26.0022 30.3833 26.0022H20.5558C17.864 26.0022 15.6367 28.3064 15.6367 31.0022V40.3715C15.6367 43.0374 17.9548 44.6061 20.5558 45.3707C23.67 46.2859 26.6567 46.4516 30.3833 45.3707C32.86 44.6531 35.3024 43.2099 35.3024 40.3715V36.6214H25.4753V35.3711H40.2223C43.0815 35.3711 44.1477 33.3769 45.1422 30.383C46.1694 27.3011 46.1252 24.3372 45.1422 20.3839C44.4354 17.537 43.0859 15.395 40.2223 15.395L36.5296 15.3954ZM31.0021 39.1212C32.0225 39.1212 32.8484 39.9567 32.8484 40.9906C32.8484 42.0274 32.0221 42.8709 31.0021 42.8709C29.986 42.8709 29.1561 42.0274 29.1561 40.9906C29.1561 39.9567 29.986 39.1212 31.0021 39.1212Z" fill="url(#paint1_linear_422_964)"/>
<path opacity="0.444" d="M38.7712 47.652C38.7712 49.0637 32.8679 50.2084 25.5865 50.2084C18.3046 50.2084 12.4014 49.0637 12.4014 47.652C12.4014 46.2403 18.3042 45.0952 25.5865 45.0952C32.8679 45.0952 38.7712 46.2395 38.7712 47.652Z" fill="url(#paint2_radial_422_964)"/>
<defs>
<linearGradient id="paint0_linear_422_964" x1="4.11819" y1="6.05265" x2="26.8107" y2="25.4047" gradientUnits="userSpaceOnUse">
<stop stop-color="#5A9FD4"/>
<stop offset="1" stop-color="#306998"/>
</linearGradient>
<linearGradient id="paint1_linear_422_964" x1="35.349" y1="37.4339" x2="27.2111" y2="26.0218" gradientUnits="userSpaceOnUse">
<stop stop-color="#FFD43B"/>
<stop offset="1" stop-color="#FFE873"/>
</linearGradient>
<radialGradient id="paint2_radial_422_964" cx="0" cy="0" r="1" gradientUnits="userSpaceOnUse" gradientTransform="translate(25.5332 47.5788) rotate(-90) scale(2.5573 11.2415)">
<stop stop-color="#B8B8B8" stop-opacity="0.498"/>
<stop offset="1" stop-color="#7F7F7F" stop-opacity="0"/>
</radialGradient>
</defs>
</svg>
